<svg width="688" height="97" viewBox="0 0 688 97" fill="none" xmlns="http://www.w3.org/2000/svg">
<path d="M56.547 96.96C50.531 96.96 45.347 95.968 40.995 93.984C36.643 92 33.251 89.088 30.819 85.248C28.451 81.408 27.139 76.64 26.883 70.944C26.819 68.32 26.787 65.504 26.787 62.496C26.787 59.488 26.819 56.608 26.883 53.856C27.139 48.288 28.483 43.552 30.915 39.648C33.347 35.744 36.739 32.8 41.091 30.816C45.443 28.832 50.595 27.84 56.547 27.84C60.771 27.84 64.675 28.384 68.259 29.472C71.843 30.496 74.979 32.032 77.667 34.08C80.355 36.064 82.435 38.496 83.907 41.376C85.443 44.192 86.243 47.392 86.307 50.976C86.371 51.552 86.179 52.032 85.731 52.416C85.347 52.8 84.867 52.992 84.291 52.992H71.331C70.499 52.992 69.859 52.832 69.411 52.512C68.963 52.128 68.579 51.456 68.259 50.496C67.363 47.104 65.891 44.8 63.843 43.584C61.859 42.304 59.395 41.664 56.451 41.664C52.931 41.664 50.147 42.656 48.099 44.64C46.051 46.56 44.931 49.792 44.739 54.336C44.547 59.584 44.547 64.96 44.739 70.464C44.931 75.008 46.051 78.272 48.099 80.256C50.147 82.176 52.931 83.136 56.451 83.136C59.395 83.136 61.891 82.496 63.939 81.216C65.987 79.936 67.427 77.632 68.259 74.304C68.515 73.344 68.867 72.704 69.315 72.384C69.827 72 70.499 71.808 71.331 71.808H84.291C84.867 71.808 85.347 72 85.731 72.384C86.179 72.768 86.371 73.248 86.307 73.824C86.243 77.408 85.443 80.64 83.907 83.52C82.435 86.336 80.355 88.768 77.667 90.816C74.979 92.8 71.843 94.336 68.259 95.424C64.675 96.448 60.771 96.96 56.547 96.96ZM120.977 96.96C115.089 96.96 109.969 96 105.617 94.08C101.265 92.16 97.8732 89.28 95.4412 85.44C93.0092 81.536 91.6652 76.672 91.4092 70.848C91.3452 68.096 91.3132 65.344 91.3132 62.592C91.3132 59.776 91.3452 56.992 91.4092 54.24C91.6652 48.48 93.0092 43.648 95.4412 39.744C97.9372 35.776 101.361 32.8 105.713 30.816C110.129 28.832 115.217 27.84 120.977 27.84C126.801 27.84 131.889 28.832 136.241 30.816C140.593 32.8 144.017 35.776 146.513 39.744C149.009 43.648 150.353 48.48 150.545 54.24C150.673 56.992 150.737 59.776 150.737 62.592C150.737 65.344 150.673 68.096 150.545 70.848C150.353 76.672 149.009 81.536 146.513 85.44C144.081 89.28 140.689 92.16 136.337 94.08C131.985 96 126.865 96.96 120.977 96.96ZM120.977 83.136C124.369 83.136 127.121 82.112 129.233 80.064C131.409 78.016 132.561 74.752 132.689 70.272C132.817 67.456 132.881 64.8 132.881 62.304C132.881 59.808 132.817 57.216 132.689 54.528C132.561 51.52 131.985 49.088 130.961 47.232C130.001 45.312 128.657 43.904 126.929 43.008C125.201 42.112 123.217 41.664 120.977 41.664C118.801 41.664 116.849 42.112 115.121 43.008C113.393 43.904 112.017 45.312 110.993 47.232C109.969 49.088 109.393 51.52 109.265 54.528C109.201 57.216 109.169 59.808 109.169 62.304C109.169 64.8 109.201 67.456 109.265 70.272C109.457 74.752 110.609 78.016 112.721 80.064C114.897 82.112 117.649 83.136 120.977 83.136ZM161.385 96C160.745 96 160.169 95.776 159.657 95.328C159.209 94.816 158.985 94.24 158.985 93.6V31.2C158.985 30.496 159.209 29.92 159.657 29.472C160.169 29.024 160.745 28.8 161.385 28.8H171.753C172.841 28.8 173.641 29.088 174.153 29.664C174.665 30.176 174.985 30.592 175.113 30.912L192.009 61.152L208.905 30.912C209.097 30.592 209.417 30.176 209.865 29.664C210.377 29.088 211.177 28.8 212.265 28.8H222.537C223.241 28.8 223.817 29.024 224.265 29.472C224.777 29.92 225.033 30.496 225.033 31.2V93.6C225.033 94.24 224.777 94.816 224.265 95.328C223.817 95.776 223.241 96 222.537 96H211.113C210.409 96 209.801 95.776 209.289 95.328C208.841 94.816 208.617 94.24 208.617 93.6V57.6L197.865 77.664C197.545 78.24 197.129 78.752 196.617 79.2C196.105 79.648 195.401 79.872 194.505 79.872H189.513C188.617 79.872 187.913 79.648 187.401 79.2C186.889 78.752 186.473 78.24 186.153 77.664L175.305 57.6V93.6C175.305 94.24 175.081 94.816 174.633 95.328C174.185 95.776 173.609 96 172.905 96H161.385ZM238.005 96C237.301 96 236.725 95.776 236.277 95.328C235.829 94.816 235.605 94.24 235.605 93.6V31.2C235.605 30.496 235.829 29.92 236.277 29.472C236.725 29.024 237.301 28.8 238.005 28.8H250.869C251.573 28.8 252.149 29.024 252.597 29.472C253.109 29.92 253.365 30.496 253.365 31.2V93.6C253.365 94.24 253.109 94.816 252.597 95.328C252.149 95.776 251.573 96 250.869 96H238.005ZM266.25 96C265.546 96 264.97 95.776 264.522 95.328C264.074 94.816 263.85 94.24 263.85 93.6V31.2C263.85 30.496 264.074 29.92 264.522 29.472C264.97 29.024 265.546 28.8 266.25 28.8H276.426C277.514 28.8 278.282 29.056 278.73 29.568C279.242 30.016 279.562 30.368 279.69 30.624L303.114 67.488V31.2C303.114 30.496 303.338 29.92 303.786 29.472C304.234 29.024 304.81 28.8 305.514 28.8H317.034C317.738 28.8 318.314 29.024 318.762 29.472C319.21 29.92 319.434 30.496 319.434 31.2V93.504C319.434 94.208 319.21 94.816 318.762 95.328C318.314 95.776 317.738 96 317.034 96H306.762C305.738 96 304.97 95.744 304.458 95.232C304.01 94.72 303.722 94.368 303.594 94.176L280.17 58.656V93.6C280.17 94.24 279.946 94.816 279.498 95.328C279.05 95.776 278.474 96 277.77 96H266.25ZM357.714 96.96C351.634 96.96 346.386 95.968 341.97 93.984C337.618 91.936 334.226 88.992 331.794 85.152C329.426 81.248 328.114 76.512 327.858 70.944C327.794 68.192 327.762 65.28 327.762 62.208C327.762 59.072 327.794 56.096 327.858 53.28C328.114 47.84 329.458 43.232 331.89 39.456C334.322 35.68 337.746 32.8 342.162 30.816C346.578 28.832 351.762 27.84 357.714 27.84C362.514 27.84 366.77 28.448 370.482 29.664C374.194 30.816 377.298 32.384 379.794 34.368C382.354 36.352 384.306 38.528 385.65 40.896C386.994 43.264 387.698 45.6 387.762 47.904C387.762 48.48 387.538 48.96 387.09 49.344C386.706 49.728 386.226 49.92 385.65 49.92H371.634C370.93 49.92 370.386 49.824 370.002 49.632C369.682 49.376 369.394 49.024 369.138 48.576C368.69 47.616 368.018 46.624 367.122 45.6C366.29 44.512 365.106 43.584 363.57 42.816C362.098 42.048 360.146 41.664 357.714 41.664C354.13 41.664 351.282 42.624 349.17 44.544C347.058 46.464 345.906 49.536 345.714 53.76C345.522 59.264 345.522 64.832 345.714 70.464C345.906 74.944 347.09 78.176 349.266 80.16C351.442 82.144 354.354 83.136 358.002 83.136C360.37 83.136 362.482 82.72 364.338 81.888C366.258 81.056 367.762 79.776 368.85 78.048C369.938 76.256 370.482 73.984 370.482 71.232V69.408H361.458C360.754 69.408 360.178 69.184 359.73 68.736C359.282 68.224 359.058 67.616 359.058 66.912V59.808C359.058 59.104 359.282 58.528 359.73 58.08C360.178 57.568 360.754 57.312 361.458 57.312H385.65C386.354 57.312 386.93 57.568 387.378 58.08C387.826 58.528 388.05 59.104 388.05 59.808V70.752C388.05 76.256 386.802 80.96 384.306 84.864C381.81 88.768 378.258 91.776 373.65 93.888C369.106 95.936 363.794 96.96 357.714 96.96ZM438.797 96.96C432.397 96.96 427.085 96.064 422.861 94.272C418.637 92.416 415.437 90.016 413.261 87.072C411.085 84.128 409.933 80.992 409.805 77.664C409.805 77.152 409.997 76.704 410.381 76.32C410.829 75.872 411.341 75.648 411.917 75.648H424.013C424.909 75.648 425.581 75.808 426.029 76.128C426.541 76.448 426.989 76.864 427.373 77.376C427.885 78.336 428.589 79.264 429.485 80.16C430.445 81.056 431.693 81.792 433.229 82.368C434.765 82.88 436.621 83.136 438.797 83.136C442.509 83.136 445.293 82.56 447.149 81.408C449.069 80.256 450.029 78.688 450.029 76.704C450.029 75.232 449.517 74.048 448.493 73.152C447.469 72.256 445.805 71.456 443.501 70.752C441.261 69.984 438.253 69.216 434.477 68.448C429.613 67.424 425.453 66.112 421.997 64.512C418.605 62.848 416.013 60.704 414.221 58.08C412.429 55.392 411.533 52.064 411.533 48.096C411.533 44.192 412.621 40.704 414.797 37.632C417.037 34.56 420.141 32.16 424.109 30.432C428.077 28.704 432.781 27.84 438.221 27.84C442.637 27.84 446.509 28.416 449.837 29.568C453.229 30.72 456.077 32.256 458.381 34.176C460.685 36.096 462.413 38.144 463.565 40.32C464.781 42.432 465.421 44.512 465.485 46.56C465.485 47.072 465.293 47.552 464.909 48C464.589 48.384 464.109 48.576 463.469 48.576H450.797C450.093 48.576 449.485 48.448 448.973 48.192C448.461 47.936 448.013 47.52 447.629 46.944C447.245 45.536 446.221 44.32 444.557 43.296C442.957 42.208 440.845 41.664 438.221 41.664C435.405 41.664 433.197 42.176 431.597 43.2C430.061 44.16 429.293 45.664 429.293 47.712C429.293 48.992 429.709 50.112 430.541 51.072C431.437 52.032 432.877 52.864 434.861 53.568C436.909 54.272 439.693 55.008 443.213 55.776C449.037 56.864 453.741 58.24 457.325 59.904C460.909 61.504 463.533 63.616 465.197 66.24C466.925 68.8 467.789 72.032 467.789 75.936C467.789 80.288 466.541 84.032 464.045 87.168C461.549 90.304 458.125 92.736 453.773 94.464C449.485 96.128 444.493 96.96 438.797 96.96ZM501.973 96.96C496.085 96.96 490.965 96 486.613 94.08C482.261 92.16 478.869 89.28 476.437 85.44C474.005 81.536 472.661 76.672 472.405 70.848C472.341 68.096 472.309 65.344 472.309 62.592C472.309 59.776 472.341 56.992 472.405 54.24C472.661 48.48 474.005 43.648 476.437 39.744C478.933 35.776 482.357 32.8 486.709 30.816C491.125 28.832 496.213 27.84 501.973 27.84C507.797 27.84 512.885 28.832 517.237 30.816C521.589 32.8 525.013 35.776 527.509 39.744C530.005 43.648 531.349 48.48 531.541 54.24C531.669 56.992 531.733 59.776 531.733 62.592C531.733 65.344 531.669 68.096 531.541 70.848C531.349 76.672 530.005 81.536 527.509 85.44C525.077 89.28 521.685 92.16 517.333 94.08C512.981 96 507.861 96.96 501.973 96.96ZM501.973 83.136C505.365 83.136 508.117 82.112 510.229 80.064C512.405 78.016 513.557 74.752 513.685 70.272C513.813 67.456 513.877 64.8 513.877 62.304C513.877 59.808 513.813 57.216 513.685 54.528C513.557 51.52 512.981 49.088 511.957 47.232C510.997 45.312 509.653 43.904 507.925 43.008C506.197 42.112 504.213 41.664 501.973 41.664C499.797 41.664 497.845 42.112 496.117 43.008C494.389 43.904 493.013 45.312 491.989 47.232C490.965 49.088 490.389 51.52 490.261 54.528C490.197 57.216 490.165 59.808 490.165 62.304C490.165 64.8 490.197 67.456 490.261 70.272C490.453 74.752 491.605 78.016 493.717 80.064C495.893 82.112 498.645 83.136 501.973 83.136ZM567.437 96.96C561.549 96.96 556.429 96 552.077 94.08C547.725 92.16 544.333 89.28 541.901 85.44C539.469 81.536 538.125 76.672 537.869 70.848C537.805 68.096 537.773 65.344 537.773 62.592C537.773 59.776 537.805 56.992 537.869 54.24C538.125 48.48 539.469 43.648 541.901 39.744C544.397 35.776 547.821 32.8 552.173 30.816C556.589 28.832 561.677 27.84 567.437 27.84C573.261 27.84 578.349 28.832 582.701 30.816C587.053 32.8 590.477 35.776 592.973 39.744C595.469 43.648 596.813 48.48 597.005 54.24C597.133 56.992 597.197 59.776 597.197 62.592C597.197 65.344 597.133 68.096 597.005 70.848C596.813 76.672 595.469 81.536 592.973 85.44C590.541 89.28 587.149 92.16 582.797 94.08C578.445 96 573.325 96.96 567.437 96.96ZM567.437 83.136C570.829 83.136 573.581 82.112 575.693 80.064C577.869 78.016 579.021 74.752 579.149 70.272C579.277 67.456 579.341 64.8 579.341 62.304C579.341 59.808 579.277 57.216 579.149 54.528C579.021 51.52 578.445 49.088 577.421 47.232C576.461 45.312 575.117 43.904 573.389 43.008C571.661 42.112 569.677 41.664 567.437 41.664C565.261 41.664 563.309 42.112 561.581 43.008C559.853 43.904 558.477 45.312 557.453 47.232C556.429 49.088 555.853 51.52 555.725 54.528C555.661 57.216 555.629 59.808 555.629 62.304C555.629 64.8 555.661 67.456 555.725 70.272C555.917 74.752 557.069 78.016 559.181 80.064C561.357 82.112 564.109 83.136 567.437 83.136ZM607.845 96C607.141 96 606.565 95.776 606.117 95.328C605.669 94.816 605.445 94.24 605.445 93.6V31.2C605.445 30.496 605.669 29.92 606.117 29.472C606.565 29.024 607.141 28.8 607.845 28.8H618.021C619.109 28.8 619.877 29.056 620.325 29.568C620.837 30.016 621.157 30.368 621.285 30.624L644.709 67.488V31.2C644.709 30.496 644.933 29.92 645.381 29.472C645.829 29.024 646.405 28.8 647.109 28.8H658.629C659.333 28.8 659.909 29.024 660.357 29.472C660.805 29.92 661.029 30.496 661.029 31.2V93.504C661.029 94.208 660.805 94.816 660.357 95.328C659.909 95.776 659.333 96 658.629 96H648.357C647.333 96 646.565 95.744 646.053 95.232C645.605 94.72 645.317 94.368 645.189 94.176L621.765 58.656V93.6C621.765 94.24 621.541 94.816 621.093 95.328C620.645 95.776 620.069 96 619.365 96H607.845Z" fill="url(#paint0_linear_0_1)"/>
<path opacity="0.3" d="M15.6613 71.816L16.4909 69.9962L15.6613 71.816ZM4.63726 62.352L2.93491 63.4018L2.94121 63.412L2.94762 63.4221L4.63726 62.352ZM0.373256 46.856L-1.62615 46.9048L-1.62565 46.9253L-1.62473 46.9458L0.373256 46.856ZM0.373256 28.344L-1.62463 28.2521L-1.62568 28.2748L-1.6262 28.2975L0.373256 28.344ZM15.7653 3.384L16.5949 5.20381L15.7653 3.384ZM45.1973 1.928L44.6163 3.84176L44.632 3.84653L44.6478 3.85105L45.1973 1.928ZM55.3893 6.91999L54.1772 8.51086L54.1893 8.5201L54.2016 8.52914L55.3893 6.91999ZM62.1493 14.824L60.3684 15.7342L60.3806 15.7581L60.3935 15.7817L62.1493 14.824ZM64.7493 25.224L62.7496 25.2597L62.7512 25.3526L62.7615 25.4449L64.7493 25.224ZM64.1253 26.784L62.8237 25.2655L62.7654 25.3155L62.711 25.3698L64.1253 26.784ZM46.4453 26.888L45.1437 28.4065L45.2108 28.4641L45.2828 28.5155L46.4453 26.888ZM45.1973 24.704L43.2636 25.2148L43.2798 25.2762L43.2999 25.3365L45.1973 24.704ZM40.4133 17.216L39.329 18.8966L39.3602 18.9167L39.3922 18.9357L40.4133 17.216ZM23.3573 18.36L24.7251 19.8191L24.7371 19.8079L24.7488 19.7965L23.3573 18.36ZM19.7173 28.864L17.719 28.7796L17.7186 28.7909L19.7173 28.864ZM19.7173 46.336L17.7185 46.4057L17.7187 46.4131L17.719 46.4204L19.7173 46.336ZM23.3573 56.944L21.9657 58.3805L21.9774 58.3919L21.9894 58.4031L23.3573 56.944ZM40.5173 57.984L39.4573 56.288L40.5173 57.984ZM45.1973 50.496L43.2648 49.9807L43.2608 49.9958L43.257 50.0109L45.1973 50.496ZM46.3413 48.416L47.5037 50.0435L47.5227 50.03L47.5413 50.016L46.3413 48.416ZM64.1253 48.416L62.711 49.8302L62.7654 49.8845L62.8237 49.9345L64.1253 48.416ZM64.7493 49.976L62.7615 49.7551L62.7512 49.8474L62.7496 49.9403L64.7493 49.976ZM62.1493 60.48L60.3846 59.5388L60.3806 59.5461L60.3768 59.5535L62.1493 60.48ZM55.3893 68.384L56.577 69.9931L56.5892 69.9841L56.6013 69.9749L55.3893 68.384ZM45.1973 73.376L45.7467 75.299L45.7625 75.2945L45.7782 75.2898L45.1973 73.376ZM32.5093 73.04C26.2067 73.04 20.887 72.0003 16.4909 69.9962L14.8316 73.6358C19.8648 75.9304 25.7772 77.04 32.5093 77.04V73.04ZM16.4909 69.9962C12.1102 67.9991 8.74262 65.0962 6.32689 61.2819L2.94762 63.4221C5.80122 67.9278 9.78301 71.3342 14.8316 73.6358L16.4909 69.9962ZM6.3396 61.3022C3.99403 57.4986 2.63725 52.685 2.37124 46.7662L-1.62473 46.9458C-1.33607 53.3684 0.149817 58.8854 2.93491 63.4018L6.3396 61.3022ZM2.37266 46.8072C2.30378 43.983 2.26926 40.9487 2.26926 37.704H-1.73074C-1.73074 40.9766 -1.69593 44.0437 -1.62615 46.9048L2.37266 46.8072ZM2.26926 37.704C2.26926 34.4594 2.30377 31.355 2.37272 28.3905L-1.6262 28.2975C-1.69593 31.2957 -1.73074 34.4312 -1.73074 37.704H2.26926ZM2.37115 28.4359C2.63606 22.674 4.02004 17.8923 6.43881 14.0095L3.0437 11.8945C0.19314 16.4704 -1.33488 21.95 -1.62463 28.2521L2.37115 28.4359ZM6.43881 14.0095C8.85685 10.1279 12.2231 7.19682 16.5949 5.20381L14.9356 1.56418C9.87806 3.86984 5.89499 7.31742 3.0437 11.8945L6.43881 14.0095ZM16.5949 5.20381C20.9936 3.19853 26.2795 2.16 32.5093 2.16V-1.84C25.8431 -1.84 19.9663 -0.7292 14.9356 1.56418L16.5949 5.20381ZM32.5093 2.16C36.9132 2.16 40.9443 2.72704 44.6163 3.84176L45.7782 0.0142365C41.6849 -1.22838 37.2574 -1.84 32.5093 -1.84V2.16ZM44.6478 3.85105C48.3155 4.89896 51.4829 6.45806 54.1772 8.51086L56.6013 5.32913C53.4716 2.9446 49.8443 1.1757 45.7467 0.00494957L44.6478 3.85105ZM54.2016 8.52914C56.8729 10.5008 58.9194 12.8992 60.3684 15.7342L63.9301 13.9138C62.1898 10.5088 59.7297 7.63784 56.577 5.31085L54.2016 8.52914ZM60.3935 15.7817C61.8856 18.5173 62.6853 21.6611 62.7496 25.2597L66.7489 25.1883C66.6745 21.0216 65.7409 17.2321 63.9051 13.8663L60.3935 15.7817ZM62.7615 25.4449C62.7633 25.461 62.761 25.4551 62.7638 25.4318C62.7667 25.4076 62.774 25.3749 62.7883 25.3392C62.8025 25.3036 62.8188 25.2774 62.8301 25.262C62.8409 25.2475 62.8421 25.2497 62.8237 25.2655L65.4268 28.3025C66.4036 27.4653 66.881 26.2989 66.737 25.0031L62.7615 25.4449ZM62.711 25.3698C62.6959 25.3849 62.6869 25.3912 62.6844 25.3929C62.6821 25.3944 62.6814 25.3947 62.6805 25.395C62.6794 25.3955 62.6723 25.3983 62.656 25.4013C62.6393 25.4043 62.61 25.408 62.5653 25.408V29.408C63.684 29.408 64.7239 29.0138 65.5395 28.1982L62.711 25.3698ZM62.5653 25.408H48.5253V29.408H62.5653V25.408ZM48.5253 25.408C47.8399 25.408 47.6206 25.2697 47.6077 25.2605L45.2828 28.5155C46.2406 29.1996 47.4079 29.408 48.5253 29.408V25.408ZM47.7468 25.3695C47.6695 25.3032 47.3987 24.9837 47.0946 24.0715L43.2999 25.3365C43.6892 26.5042 44.2504 27.6408 45.1437 28.4065L47.7468 25.3695ZM47.1309 24.1932C46.0892 20.2496 44.2788 17.1852 41.4343 15.4963L39.3922 18.9357C40.9851 19.8815 42.364 21.8091 43.2636 25.2148L47.1309 24.1932ZM41.4975 15.5354C38.9536 13.8941 35.8843 13.136 32.4053 13.136V17.136C35.3049 17.136 37.5743 17.7645 39.329 18.8966L41.4975 15.5354ZM32.4053 13.136C28.201 13.136 24.6405 14.3322 21.9657 16.9235L24.7488 19.7965C26.5113 18.0891 28.9828 17.136 32.4053 17.136V13.136ZM21.9894 16.9009C19.2105 19.5061 17.9361 23.6434 17.719 28.7796L21.7155 28.9484C21.9145 24.2393 23.0667 21.3739 24.7251 19.8191L21.9894 16.9009ZM17.7186 28.7909C17.5088 34.526 17.5089 40.3978 17.7185 46.4057L21.716 46.2663C21.5096 40.3489 21.5097 34.5726 21.7159 28.9371L17.7186 28.7909ZM17.719 46.4204C17.9364 51.5637 19.2128 55.7137 21.9657 58.3805L24.7488 55.5075C23.0644 53.8757 21.9142 50.9536 21.7155 46.2516L17.719 46.4204ZM21.9894 58.4031C24.6666 60.913 28.2186 62.064 32.4053 62.064V58.064C28.9652 58.064 26.4853 57.135 24.7251 55.4849L21.9894 58.4031ZM32.4053 62.064C35.8871 62.064 38.9775 61.3049 41.5773 59.68L39.4573 56.288C37.6197 57.4365 35.3021 58.064 32.4053 58.064V62.064ZM41.5773 59.68C44.3908 57.9215 46.1636 54.8768 47.1375 50.9811L43.257 50.0109C42.4282 53.3259 41.0811 55.2731 39.4573 56.288L41.5773 59.68ZM47.1297 51.0113C47.2406 50.5957 47.3532 50.3244 47.4437 50.1598C47.535 49.9939 47.5711 49.9954 47.5037 50.0435L45.1788 46.7885C44.1128 47.55 43.5762 48.8127 43.2648 49.9807L47.1297 51.0113ZM47.5413 50.016C47.6584 49.9281 47.9266 49.792 48.5253 49.792V45.792C47.3212 45.792 46.1334 46.0719 45.1413 46.816L47.5413 50.016ZM48.5253 49.792H62.5653V45.792H48.5253V49.792ZM62.5653 49.792C62.61 49.792 62.6393 49.7957 62.656 49.7987C62.6723 49.8017 62.6794 49.8045 62.6805 49.805C62.6814 49.8053 62.6821 49.8056 62.6844 49.8071C62.6869 49.8088 62.6959 49.8151 62.711 49.8302L65.5395 47.0018C64.7239 46.1862 63.684 45.792 62.5653 45.792V49.792ZM62.8237 49.9345C62.8421 49.9503 62.8409 49.9525 62.8301 49.938C62.8188 49.9226 62.8025 49.8964 62.7883 49.8608C62.774 49.8251 62.7667 49.7924 62.7638 49.7682C62.761 49.7449 62.7633 49.739 62.7615 49.7551L66.737 50.1969C66.881 48.9011 66.4036 47.7347 65.4268 46.8975L62.8237 49.9345ZM62.7496 49.9403C62.6853 53.5384 61.8856 56.7244 60.3846 59.5388L63.914 61.4212C65.741 57.9956 66.6745 54.1789 66.7489 50.0117L62.7496 49.9403ZM60.3768 59.5535C58.9265 62.328 56.8711 64.7407 54.1772 66.7931L56.6013 69.9749C59.7315 67.59 62.1827 64.7334 63.9217 61.4065L60.3768 59.5535ZM54.2016 66.7748C51.4938 68.7735 48.307 70.3418 44.6163 71.4622L45.7782 75.2898C49.8528 74.0528 53.4608 72.2932 56.577 69.9931L54.2016 66.7748ZM44.6478 71.4529C40.9658 72.505 36.9237 73.04 32.5093 73.04V77.04C37.2468 77.04 41.6634 76.4657 45.7467 75.299L44.6478 71.4529ZM85.6687 71.92L86.476 70.0902L85.6687 71.92ZM74.6447 62.56L72.9471 63.6175L72.9511 63.6238L72.9551 63.6301L74.6447 62.56ZM70.2767 46.752L68.2772 46.7985L68.2777 46.8192L68.2786 46.8398L70.2767 46.752ZM70.2767 28.76L68.2787 28.6712L68.2777 28.6923L68.2772 28.7135L70.2767 28.76ZM74.6447 13.056L72.9518 11.9911L72.9471 11.9985L74.6447 13.056ZM85.7727 3.384L84.953 1.55963L84.9431 1.56418L85.7727 3.384ZM118.845 3.384L119.674 1.56418L118.845 3.384ZM129.973 13.056L128.28 14.1209L128.284 14.1271L128.288 14.1333L129.973 13.056ZM134.341 28.76L132.342 28.8266L132.342 28.8398L132.343 28.8529L134.341 28.76ZM134.341 46.752L132.343 46.6591L132.342 46.6726L132.342 46.6861L134.341 46.752ZM129.973 62.56L128.288 61.4827L128.283 61.4899L129.973 62.56ZM118.949 71.92L118.141 70.0902L118.949 71.92ZM111.253 56.736L109.882 55.2796L109.871 55.2898L109.86 55.3002L111.253 56.736ZM114.997 46.128L112.999 46.0372L112.998 46.054L112.998 46.0709L114.997 46.128ZM114.997 29.072L112.998 29.157L112.999 29.1671L114.997 29.072ZM113.125 21.168L111.336 22.0624L111.354 22.0987L111.374 22.1342L113.125 21.168ZM108.757 16.592L107.836 18.3675L108.757 16.592ZM91.4927 21.168L93.2438 22.1342L93.2507 22.1217L93.2574 22.1092L91.4927 21.168ZM89.6207 29.072L87.6225 28.987L87.6217 29.0057L87.6213 29.0244L89.6207 29.072ZM89.6207 46.128L87.6212 46.1734L87.6217 46.1935L87.6225 46.2136L89.6207 46.128ZM93.3647 56.736L91.9724 58.1718L91.9831 58.1822L91.994 58.1924L93.3647 56.736ZM102.309 73.04C96.1437 73.04 90.8834 72.0346 86.476 70.0902L84.8614 73.7498C89.8833 75.9654 95.7163 77.04 102.309 77.04V73.04ZM86.476 70.0902C82.1064 68.1624 78.7465 65.2987 76.3343 61.4899L72.9551 63.6301C75.8122 68.1413 79.8016 71.5176 84.8614 73.7498L86.476 70.0902ZM76.3422 61.5025C73.9319 57.6333 72.541 52.72 72.2748 46.6642L68.2786 46.8398C68.5671 53.4026 70.0881 59.0281 72.9471 63.6175L76.3422 61.5025ZM72.2762 46.7055C72.2072 43.7397 72.1727 40.7738 72.1727 37.808H68.1727C68.1727 40.8048 68.2075 43.8017 68.2772 46.7985L72.2762 46.7055ZM72.1727 37.808C72.1727 34.7725 72.2072 31.772 72.2762 28.8065L68.2772 28.7135C68.2075 31.7107 68.1727 34.7422 68.1727 37.808H72.1727ZM72.2747 28.8488C72.5406 22.8664 73.9299 17.986 76.3422 14.1135L72.9471 11.9985C70.0902 16.5846 68.5674 22.1736 68.2787 28.6712L72.2747 28.8488ZM76.3376 14.1209C78.8293 10.1598 82.2353 7.19467 86.6023 5.20381L84.9431 1.56418C79.8808 3.872 75.8681 7.35487 72.9518 11.9911L76.3376 14.1209ZM86.5923 5.20834C91.0744 3.19465 96.2984 2.16 102.309 2.16V-1.84C95.839 -1.84 90.039 -0.725325 84.9531 1.55966L86.5923 5.20834ZM102.309 2.16C108.393 2.16 113.611 3.19616 118.015 5.20381L119.674 1.56418C114.649 -0.726831 108.843 -1.84 102.309 -1.84V2.16ZM118.015 5.20381C122.382 7.19467 125.788 10.1598 128.28 14.1209L131.666 11.9911C128.749 7.35487 124.737 3.872 119.674 1.56418L118.015 5.20381ZM128.288 14.1333C130.756 17.9944 132.143 22.8588 132.342 28.8266L136.34 28.6934C136.123 22.1812 134.597 16.5763 131.658 11.9787L128.288 14.1333ZM132.343 28.8529C132.48 31.8026 132.549 34.7876 132.549 37.808H136.549C136.549 34.727 136.479 31.68 136.339 28.6671L132.343 28.8529ZM132.549 37.808C132.549 40.7583 132.48 43.7087 132.343 46.6591L136.339 46.8449C136.479 43.8327 136.549 40.8204 136.549 37.808H132.549ZM132.342 46.6861C132.143 52.7277 130.754 57.6249 128.288 61.4827L131.658 63.6373C134.599 59.0364 136.123 53.395 136.34 46.8179L132.342 46.6861ZM128.283 61.4899C125.871 65.2987 122.511 68.1624 118.141 70.0902L119.756 73.7498C124.816 71.5176 128.805 68.1413 131.662 63.6301L128.283 61.4899ZM118.141 70.0902C113.734 72.0346 108.474 73.04 102.309 73.04V77.04C108.901 77.04 114.734 75.9654 119.756 73.7498L118.141 70.0902ZM102.309 62.064C106.417 62.064 109.926 60.8079 112.645 58.1718L109.86 55.3002C108.003 57.1014 105.549 58.064 102.309 58.064V62.064ZM112.623 58.1924C115.524 55.462 116.85 51.3072 116.996 46.1851L112.998 46.0709C112.867 50.6554 111.696 53.5727 109.882 55.2796L112.623 58.1924ZM116.995 46.2188C117.134 43.1417 117.205 40.2338 117.205 37.496H113.205C113.205 40.1661 113.136 43.013 112.999 46.0372L116.995 46.2188ZM117.205 37.496C117.205 34.7579 117.134 31.9181 116.994 28.9769L112.999 29.1671C113.136 32.0499 113.205 34.8261 113.205 37.496H117.205ZM116.995 28.987C116.848 25.5407 116.184 22.5725 114.876 20.2018L111.374 22.1342C112.284 23.7848 112.868 26.0859 112.998 29.157L116.995 28.987ZM114.914 20.2736C113.705 17.8564 111.963 16.0017 109.677 14.8165L107.836 18.3675C109.294 19.1236 110.464 20.3196 111.336 22.0624L114.914 20.2736ZM109.677 14.8165C107.481 13.6775 105.007 13.136 102.309 13.136V17.136C104.463 17.136 106.289 17.5652 107.836 18.3675L109.677 14.8165ZM102.309 13.136C99.6692 13.136 97.2327 13.6816 95.0441 14.8165L96.8853 18.3675C98.4407 17.561 100.233 17.136 102.309 17.136V13.136ZM95.0441 14.8165C92.7711 15.9951 91.0044 17.8335 89.728 20.2268L93.2574 22.1092C94.1996 20.3425 95.4143 19.1303 96.8853 18.3675L95.0441 14.8165ZM89.7415 20.2018C88.4336 22.5725 87.7691 25.5407 87.6225 28.987L91.6189 29.157C91.7496 26.0859 92.3331 23.7848 93.2438 22.1342L89.7415 20.2018ZM87.6213 29.0244C87.5516 31.9511 87.5167 34.775 87.5167 37.496H91.5167C91.5167 34.809 91.5511 32.0169 91.6201 29.1196L87.6213 29.0244ZM87.5167 37.496C87.5167 40.2169 87.5516 43.1095 87.6212 46.1734L91.6202 46.0826C91.5511 43.0452 91.5167 40.1831 91.5167 37.496H87.5167ZM87.6225 46.2136C87.8412 51.3171 89.165 55.4495 91.9724 58.1718L94.757 55.3002C92.9884 53.5852 91.8161 50.6456 91.6189 46.0424L87.6225 46.2136ZM91.994 58.1924C94.7657 60.801 98.2567 62.064 102.309 62.064V58.064C99.15 58.064 96.6784 57.1083 94.7354 55.2796L91.994 58.1924ZM144.212 73.272L142.707 74.589L142.794 74.6894L142.895 74.7772L144.212 73.272ZM144.212 1.928L142.895 0.422848L142.845 0.466696L142.798 0.513781L144.212 1.928ZM159.916 2.136L158.421 3.46472L158.46 3.50865L158.502 3.55021L159.916 2.136ZM160.956 3.488L159.099 4.23077L159.147 4.35073L159.21 4.46352L160.956 3.488ZM179.26 36.248L177.514 37.2235L179.26 40.3484L181.006 37.2235L179.26 36.248ZM197.564 3.488L195.849 2.459L195.833 2.4855L195.818 2.51248L197.564 3.488ZM198.604 2.136L197.109 0.807266L197.104 0.813108L197.099 0.818991L198.604 2.136ZM214.204 1.928L212.79 3.34221L212.837 3.3893L212.887 3.43315L214.204 1.928ZM214.204 73.272L215.618 74.6862L215.618 74.6862L214.204 73.272ZM197.98 73.272L196.475 74.589L196.562 74.6894L196.663 74.7772L197.98 73.272ZM197.252 32.4H199.252L195.489 31.4553L197.252 32.4ZM185.604 54.136L187.352 55.1073L187.359 55.094L187.367 55.0807L185.604 54.136ZM184.252 55.8L182.935 54.2948L184.252 55.8ZM174.268 55.8L175.585 54.2948L174.268 55.8ZM172.916 54.136L171.156 55.0872L171.162 55.0973L171.167 55.1073L172.916 54.136ZM161.164 32.4L162.923 31.4488L159.164 32.4H161.164ZM160.436 73.272L161.85 74.6862L161.897 74.6391L161.941 74.589L160.436 73.272ZM146.084 72C145.907 72 145.744 71.955 145.529 71.7668L142.895 74.7772C143.789 75.5596 144.874 76 146.084 76V72ZM145.717 71.955C145.529 71.7399 145.484 71.5767 145.484 71.4H141.484C141.484 72.61 141.924 73.6947 142.707 74.589L145.717 71.955ZM145.484 71.4V3.8H141.484V71.4H145.484ZM145.484 3.8C145.484 3.50316 145.559 3.40914 145.626 3.34222L142.798 0.513781C141.894 1.41752 141.484 2.5715 141.484 3.8H145.484ZM145.529 3.43315C145.744 3.24497 145.907 3.2 146.084 3.2V-0.800005C144.874 -0.800005 143.789 -0.359642 142.895 0.422848L145.529 3.43315ZM146.084 3.2H157.316V-0.800005H146.084V3.2ZM157.316 3.2C158.166 3.2 158.382 3.42049 158.421 3.46472L161.411 0.807268C160.341 -0.396496 158.823 -0.800005 157.316 -0.800005V3.2ZM158.502 3.55021C158.739 3.78751 158.901 3.97284 159.007 4.10942C159.12 4.25665 159.123 4.29232 159.099 4.23077L162.813 2.74522C162.513 1.99594 161.911 1.30327 161.33 0.721783L158.502 3.55021ZM159.21 4.46352L177.514 37.2235L181.006 35.2725L162.702 2.51248L159.21 4.46352ZM181.006 37.2235L199.31 4.46352L195.818 2.51248L177.514 35.2725L181.006 37.2235ZM199.279 4.51699C199.395 4.3235 199.649 3.97828 200.109 3.453L197.099 0.818991C196.588 1.40305 196.149 1.95916 195.849 2.459L199.279 4.51699ZM200.099 3.46473C200.138 3.42048 200.354 3.2 201.204 3.2V-0.800005C199.696 -0.800005 198.179 -0.396494 197.109 0.807266L200.099 3.46473ZM201.204 3.2H212.332V-0.800005H201.204V3.2ZM212.332 3.2C212.629 3.2 212.723 3.27528 212.79 3.34221L215.618 0.513784C214.714 -0.389956 213.56 -0.800005 212.332 -0.800005V3.2ZM212.887 3.43315C212.99 3.52387 213.036 3.59113 213.036 3.8H217.036C217.036 2.48352 216.526 1.30279 215.521 0.422846L212.887 3.43315ZM213.036 3.8V71.4H217.036V3.8H213.036ZM213.036 71.4C213.036 71.4915 213.023 71.6245 212.79 71.8578L215.618 74.6862C216.494 73.8102 217.036 72.6952 217.036 71.4H213.036ZM212.79 71.8578C212.723 71.9247 212.629 72 212.332 72V76C213.56 76 214.714 75.59 215.618 74.6862L212.79 71.8578ZM212.332 72H199.956V76H212.332V72ZM199.956 72C199.659 72 199.473 71.9212 199.297 71.7668L196.663 74.7772C197.596 75.5934 198.727 76 199.956 76V72ZM199.485 71.955C199.297 71.7399 199.252 71.5767 199.252 71.4H195.252C195.252 72.61 195.692 73.6947 196.475 74.589L199.485 71.955ZM199.252 71.4V32.4H195.252V71.4H199.252ZM195.489 31.4553L183.841 53.1913L187.367 55.0807L199.015 33.3447L195.489 31.4553ZM183.855 53.1647C183.624 53.5807 183.322 53.9563 182.935 54.2948L185.569 57.3052C186.291 56.673 186.89 55.9393 187.352 55.1073L183.855 53.1647ZM182.935 54.2948C182.847 54.3714 182.606 54.528 181.964 54.528V58.528C183.263 58.528 184.547 58.1992 185.569 57.3052L182.935 54.2948ZM181.964 54.528H176.556V58.528H181.964V54.528ZM176.556 54.528C175.913 54.528 175.672 54.3714 175.585 54.2948L172.951 57.3052C173.973 58.1992 175.257 58.528 176.556 58.528V54.528ZM175.585 54.2948C175.198 53.9563 174.895 53.5807 174.664 53.1647L171.167 55.1073C171.63 55.9393 172.228 56.673 172.951 57.3052L175.585 54.2948ZM174.675 53.1848L162.923 31.4488L159.404 33.3512L171.156 55.0872L174.675 53.1848ZM159.164 32.4V71.4H163.164V32.4H159.164ZM159.164 71.4C159.164 71.5767 159.119 71.7399 158.931 71.955L161.941 74.589C162.723 73.6947 163.164 72.61 163.164 71.4H159.164ZM159.022 71.8578C158.955 71.9247 158.861 72 158.564 72V76C159.792 76 160.946 75.59 161.85 74.6862L159.022 71.8578ZM158.564 72H146.084V76H158.564V72ZM227.217 73.272L225.712 74.589L225.755 74.6391L225.803 74.6862L227.217 73.272ZM227.217 1.928L228.631 3.34222V3.34221L227.217 1.928ZM244.897 1.928L243.483 3.34221L243.53 3.3893L243.58 3.43316L244.897 1.928ZM244.897 73.272L243.483 71.8578L244.897 73.272ZM229.089 72C228.792 72 228.698 71.9247 228.631 71.8578L225.803 74.6862C226.706 75.59 227.86 76 229.089 76V72ZM228.722 71.955C228.534 71.7399 228.489 71.5767 228.489 71.4H224.489C224.489 72.61 224.929 73.6947 225.712 74.589L228.722 71.955ZM228.489 71.4V3.8H224.489V71.4H228.489ZM228.489 3.8C228.489 3.50316 228.564 3.40914 228.631 3.34222L225.803 0.513781C224.899 1.41752 224.489 2.5715 224.489 3.8H228.489ZM228.631 3.34221C228.698 3.27528 228.792 3.2 229.089 3.2V-0.800005C227.86 -0.800005 226.706 -0.389956 225.803 0.513788L228.631 3.34221ZM229.089 3.2H243.025V-0.800005H229.089V3.2ZM243.025 3.2C243.322 3.2 243.416 3.27528 243.483 3.34221L246.311 0.513788C245.407 -0.389956 244.253 -0.800005 243.025 -0.800005V3.2ZM243.58 3.43316C243.683 3.52388 243.729 3.59114 243.729 3.8H247.729C247.729 2.48352 247.219 1.30278 246.214 0.42284L243.58 3.43316ZM243.729 3.8V71.4H247.729V3.8H243.729ZM243.729 71.4C243.729 71.4915 243.716 71.6245 243.483 71.8578L246.311 74.6862C247.187 73.8102 247.729 72.6952 247.729 71.4H243.729ZM243.483 71.8578C243.416 71.9247 243.322 72 243.025 72V76C244.253 76 245.407 75.59 246.311 74.6862L243.483 71.8578ZM243.025 72H229.089V76H243.025V72ZM257.816 73.272L256.31 74.589L256.354 74.6391L256.401 74.6862L257.816 73.272ZM257.816 1.928L259.23 3.34222L259.23 3.34221L257.816 1.928ZM273.208 2.032L271.702 3.349L271.79 3.44935L271.891 3.53715L273.208 2.032ZM274.247 3.17599L272.459 4.07042L272.504 4.1621L272.559 4.24861L274.247 3.17599ZM299.624 43.112L297.935 44.1846L301.624 49.9887V43.112H299.624ZM300.352 1.928L301.766 3.34222V3.34221L300.352 1.928ZM316.576 1.928L315.161 3.34221L315.161 3.34222L316.576 1.928ZM316.576 73.272L317.99 74.6862L318.037 74.6391L318.081 74.589L316.576 73.272ZM301.08 73.168L299.574 74.485L299.618 74.5351L299.665 74.5822L301.08 73.168ZM300.144 72.024L298.474 73.1251L298.479 73.1334L300.144 72.024ZM274.768 33.544L276.437 32.4429L272.768 26.8783V33.544H274.768ZM274.04 73.272L275.454 74.6862L275.501 74.6391L275.545 74.589L274.04 73.272ZM259.688 72C259.391 72 259.297 71.9247 259.23 71.8578L256.401 74.6862C257.305 75.59 258.459 76 259.688 76V72ZM259.321 71.955C259.132 71.7399 259.088 71.5767 259.088 71.4H255.088C255.088 72.61 255.528 73.6947 256.31 74.589L259.321 71.955ZM259.088 71.4V3.8H255.088V71.4H259.088ZM259.088 3.8C259.088 3.50316 259.163 3.40914 259.23 3.34222L256.401 0.513781C255.498 1.41752 255.088 2.5715 255.088 3.8H259.088ZM259.23 3.34221C259.297 3.27528 259.391 3.2 259.688 3.2V-0.800005C258.459 -0.800005 257.305 -0.389956 256.401 0.513788L259.23 3.34221ZM259.688 3.2H270.712V-0.800005H259.688V3.2ZM270.712 3.2C271.155 3.2 271.432 3.25352 271.587 3.30536C271.73 3.35305 271.735 3.38609 271.702 3.349L274.713 0.714989C273.67 -0.476645 272.127 -0.800005 270.712 -0.800005V3.2ZM271.891 3.53715C272.133 3.74905 272.298 3.91122 272.404 4.02734C272.455 4.08431 272.483 4.11972 272.494 4.13489C272.507 4.15243 272.488 4.1297 272.459 4.07042L276.036 2.28157C275.704 1.61722 275.078 1.01104 274.525 0.52684L271.891 3.53715ZM272.559 4.24861L297.935 44.1846L301.312 42.0394L275.936 2.10338L272.559 4.24861ZM301.624 43.112V3.8H297.624V43.112H301.624ZM301.624 3.8C301.624 3.50316 301.699 3.40914 301.766 3.34222L298.937 0.513781C298.034 1.41752 297.624 2.5715 297.624 3.8H301.624ZM301.766 3.34221C301.833 3.27528 301.927 3.2 302.224 3.2V-0.800005C300.995 -0.800005 299.841 -0.389956 298.937 0.513788L301.766 3.34221ZM302.224 3.2H314.704V-0.800005H302.224V3.2ZM314.704 3.2C315 3.2 315.094 3.27528 315.161 3.34221L317.99 0.51379C317.086 -0.389957 315.932 -0.800005 314.704 -0.800005V3.2ZM315.161 3.34222C315.228 3.40914 315.304 3.50317 315.304 3.8H319.304C319.304 2.57149 318.893 1.41752 317.99 0.513779L315.161 3.34222ZM315.304 3.8V71.296H319.304V3.8H315.304ZM315.304 71.296C315.304 71.5927 315.225 71.7786 315.07 71.955L318.081 74.589C318.897 73.6561 319.304 72.5247 319.304 71.296H315.304ZM315.161 71.8578C315.094 71.9247 315 72 314.704 72V76C315.932 76 317.086 75.59 317.99 74.6862L315.161 71.8578ZM314.704 72H303.576V76H314.704V72ZM303.576 72C302.774 72 302.541 71.8011 302.494 71.7538L299.665 74.5822C300.727 75.6442 302.158 76 303.576 76V72ZM302.585 71.851C302.35 71.583 302.166 71.367 302.029 71.1995C301.961 71.116 301.908 71.0493 301.869 70.9976C301.849 70.972 301.834 70.952 301.824 70.9371C301.818 70.9297 301.814 70.9241 301.811 70.9202C301.809 70.9162 301.807 70.9144 301.808 70.9146L298.479 73.1334C298.703 73.4681 299.102 73.9457 299.574 74.485L302.585 71.851ZM301.813 70.9229L276.437 32.4429L273.098 34.6451L298.474 73.1251L301.813 70.9229ZM272.768 33.544V71.4H276.768V33.544H272.768ZM272.768 71.4C272.768 71.5767 272.723 71.7399 272.534 71.955L275.545 74.589C276.327 73.6947 276.768 72.61 276.768 71.4H272.768ZM272.625 71.8578C272.558 71.9247 272.464 72 272.168 72V76C273.396 76 274.55 75.59 275.454 74.6862L272.625 71.8578ZM272.168 72H259.688V76H272.168V72ZM341.717 71.816L340.866 73.6256L340.882 73.6331L340.898 73.6403L341.717 71.816ZM330.694 62.248L328.983 63.2852L328.993 63.3018L329.004 63.3181L330.694 62.248ZM326.43 46.856L324.43 46.9025L324.431 46.9252L324.432 46.9479L326.43 46.856ZM326.43 27.72L324.432 27.626L324.431 27.6503L324.43 27.6746L326.43 27.72ZM330.797 12.744L329.116 11.661L330.797 12.744ZM341.926 3.384L342.745 5.20834L341.926 3.384ZM372.605 2.136L371.983 4.03661L371.998 4.04148L372.013 4.04612L372.605 2.136ZM382.694 7.232L381.449 8.79765L381.459 8.80529L381.468 8.81283L382.694 7.232ZM389.038 14.304L390.777 13.3168V13.3168L389.038 14.304ZM391.326 21.896H393.326V21.8682L393.325 21.8405L391.326 21.896ZM390.598 23.456L389.296 21.9375L389.238 21.9875L389.183 22.0418L390.598 23.456ZM372.086 23.768L370.836 25.3297L371.002 25.4621L371.191 25.5569L372.086 23.768ZM371.15 22.624L369.337 23.4698L369.372 23.5446L369.413 23.6163L371.15 22.624ZM368.966 19.4L367.377 20.6149L367.417 20.6673L367.46 20.717L368.966 19.4ZM365.117 16.384L364.192 18.1572L364.208 18.1651L364.223 18.1729L365.117 16.384ZM349.517 18.256L350.863 19.7359L349.517 18.256ZM345.773 28.24L343.776 28.1492L343.775 28.1597L343.775 28.1703L345.773 28.24ZM345.773 46.336L343.775 46.4041L343.775 46.4129L343.775 46.4216L345.773 46.336ZM349.621 56.84L350.969 55.3621L349.621 56.84ZM365.949 58.712L365.154 56.8769L365.143 56.8819L365.131 56.887L365.949 58.712ZM370.837 54.552L372.53 55.6176L372.539 55.6039L372.547 55.59L370.837 54.552ZM372.605 45.192H374.605V43.192H372.605V45.192ZM360.957 44.464L359.452 45.781L359.496 45.8311L359.543 45.8782L360.957 44.464ZM360.957 32.92L362.372 34.3342L362.419 34.2871L362.463 34.237L360.957 32.92ZM390.91 32.92L389.404 34.237L389.448 34.2871L389.495 34.3342L390.91 32.92ZM387.582 61.936L389.267 63.0133L387.582 61.936ZM376.038 71.712L376.859 73.5354L376.871 73.5301L376.038 71.712ZM358.773 73.04C352.399 73.04 347.006 71.9996 342.537 69.9917L340.898 73.6403C345.997 75.9311 351.974 77.04 358.773 77.04V73.04ZM342.569 70.0064C338.177 67.9397 334.802 64.9977 332.383 61.1779L329.004 63.3181C331.854 67.8183 335.828 71.255 340.866 73.6256L342.569 70.0064ZM332.404 61.2108C330.046 57.3242 328.693 52.535 328.427 46.7641L324.432 46.9479C324.721 53.241 326.21 58.7132 328.983 63.2852L332.404 61.2108ZM328.429 46.8095C328.36 43.8453 328.326 40.7062 328.326 37.392H324.326C324.326 40.7337 324.36 43.904 324.43 46.9025L328.429 46.8095ZM328.326 37.392C328.326 34.0081 328.36 30.7994 328.429 27.7654L324.43 27.6746C324.36 30.7419 324.326 33.9812 324.326 37.392H328.326ZM328.427 27.814C328.692 22.1978 330.072 17.5645 332.479 13.827L329.116 11.661C326.254 16.1048 324.722 21.4555 324.432 27.626L328.427 27.814ZM332.479 13.827C334.888 10.0871 338.285 7.21201 342.745 5.20834L341.106 1.55966C335.998 3.85466 331.977 7.2196 329.116 11.661L332.479 13.827ZM342.745 5.20834C347.219 3.19817 352.545 2.16 358.773 2.16V-1.84C352.106 -1.84 346.2 -0.728846 341.106 1.55966L342.745 5.20834ZM358.773 2.16C363.809 2.16 368.202 2.79819 371.983 4.03661L373.228 0.235376C368.966 -1.16086 364.138 -1.84 358.773 -1.84V2.16ZM372.013 4.04612C375.848 5.23628 378.976 6.83221 381.449 8.79765L383.938 5.66635C381.003 3.33311 377.406 1.53172 373.198 0.225866L372.013 4.04612ZM381.468 8.81283C384.072 10.8303 385.995 12.995 387.298 15.2912L390.777 13.3168C389.168 10.4823 386.862 7.93233 383.919 5.65117L381.468 8.81283ZM387.298 15.2912C388.622 17.6235 389.268 19.8372 389.326 21.9515L393.325 21.8405C393.245 18.9628 392.365 16.1152 390.777 13.3168L387.298 15.2912ZM389.326 21.896C389.326 21.9218 389.323 21.9317 389.324 21.9295C389.324 21.9267 389.326 21.9185 389.331 21.9082C389.336 21.8981 389.339 21.8939 389.337 21.8966C389.335 21.8998 389.323 21.9141 389.296 21.9375L391.899 24.9745C392.815 24.1892 393.326 23.12 393.326 21.896H389.326ZM389.183 22.0418C389.168 22.0569 389.159 22.0632 389.157 22.0649C389.154 22.0664 389.154 22.0667 389.153 22.067C389.152 22.0675 389.145 22.0703 389.128 22.0733C389.112 22.0763 389.082 22.08 389.038 22.08V26.08C390.156 26.08 391.196 25.6858 392.012 24.8702L389.183 22.0418ZM389.038 22.08H373.854V26.08H389.038V22.08ZM373.854 22.08C373.559 22.08 373.341 22.0596 373.187 22.0324C373.031 22.0049 372.974 21.9762 372.98 21.9791L371.191 25.5569C372.008 25.9652 372.956 26.08 373.854 26.08V22.08ZM373.335 22.2063C373.229 22.1213 373.069 21.9527 372.886 21.6317L369.413 23.6163C369.784 24.2659 370.249 24.86 370.836 25.3297L373.335 22.2063ZM372.962 21.7782C372.378 20.527 371.532 19.2961 370.471 18.083L367.46 20.717C368.34 21.7226 368.95 22.641 369.337 23.4698L372.962 21.7782ZM370.554 18.1851C369.427 16.7114 367.881 15.5295 366.012 14.5951L364.223 18.1729C365.682 18.9025 366.701 19.7312 367.377 20.6149L370.554 18.1851ZM366.043 14.6108C364.061 13.5767 361.592 13.136 358.773 13.136V17.136C361.225 17.136 362.985 17.5273 364.192 18.1572L366.043 14.6108ZM358.773 13.136C354.526 13.136 350.916 14.282 348.172 16.7761L350.863 19.7359C352.695 18.07 355.256 17.136 358.773 17.136V13.136ZM348.172 16.7761C345.336 19.3549 343.996 23.296 343.776 28.1492L347.771 28.3308C347.967 24.032 349.124 21.3171 350.863 19.7359L348.172 16.7761ZM343.775 28.1703C343.565 34.1799 343.565 40.2579 343.775 46.4041L347.772 46.2679C347.566 40.2114 347.566 34.2254 347.772 28.3097L343.775 28.1703ZM343.775 46.4216C343.994 51.5336 345.359 55.6598 348.274 58.3179L350.969 55.3621C349.17 53.7216 347.969 50.845 347.772 46.2504L343.775 46.4216ZM348.274 58.3179C351.082 60.8785 354.759 62.064 359.086 62.064V58.064C355.508 58.064 352.875 57.1002 350.969 55.3621L348.274 58.3179ZM359.086 62.064C361.887 62.064 364.461 61.5711 366.768 60.537L365.131 56.887C363.417 57.6555 361.415 58.064 359.086 58.064V62.064ZM366.745 60.5471C369.185 59.4898 371.131 57.8395 372.53 55.6176L369.145 53.4864C368.187 55.0085 366.874 56.1316 365.154 56.8769L366.745 60.5471ZM372.547 55.59C373.966 53.2523 374.605 50.4036 374.605 47.168H370.605C370.605 49.8951 370.066 51.969 369.128 53.514L372.547 55.59ZM374.605 47.168V45.192H370.605V47.168H374.605ZM372.605 43.192H362.829V47.192H372.605V43.192ZM362.829 43.192C362.533 43.192 362.439 43.1167 362.372 43.0498L359.543 45.8782C360.447 46.782 361.601 47.192 362.829 47.192V43.192ZM362.463 43.147C362.308 42.9706 362.229 42.7847 362.229 42.488H358.229C358.229 43.7167 358.636 44.8481 359.452 45.781L362.463 43.147ZM362.229 42.488V34.792H358.229V42.488H362.229ZM362.229 34.792C362.229 34.4952 362.305 34.4011 362.372 34.3342L359.543 31.5058C358.64 32.4095 358.229 33.5635 358.229 34.792H362.229ZM362.463 34.237C362.553 34.1333 362.621 34.088 362.829 34.088V30.088C361.513 30.088 360.332 30.5973 359.452 31.603L362.463 34.237ZM362.829 34.088H389.038V30.088H362.829V34.088ZM389.038 34.088C389.246 34.088 389.314 34.1333 389.404 34.237L392.415 31.603C391.535 30.5973 390.354 30.088 389.038 30.088V34.088ZM389.495 34.3342C389.562 34.4011 389.638 34.4952 389.638 34.792H393.638C393.638 33.5635 393.227 32.4095 392.324 31.5058L389.495 34.3342ZM389.638 34.792V46.648H393.638V34.792H389.638ZM389.638 46.648C389.638 52.3016 388.359 57.0072 385.896 60.8587L389.267 63.0133C392.212 58.4061 393.638 52.9198 393.638 46.648H389.638ZM385.896 60.8587C383.419 64.7342 379.881 67.7503 375.204 69.8939L376.871 73.5301C382.178 71.0977 386.336 67.5965 389.267 63.0133L385.896 60.8587ZM375.216 69.8886C370.602 71.9682 365.138 73.04 358.773 73.04V77.04C365.583 77.04 371.628 75.8931 376.859 73.5354L375.216 69.8886ZM429.35 72.128L428.545 73.959L428.557 73.9642L428.569 73.9692L429.35 72.128ZM418.95 64.328L417.341 65.5168L418.95 64.328ZM415.206 54.136H413.206V54.1744L413.207 54.2129L415.206 54.136ZM415.83 52.68L414.415 51.2658L415.83 52.68ZM432.782 52.472L431.619 54.0995L431.669 54.1353L431.722 54.168L432.782 52.472ZM434.238 53.824L436.002 52.8828L435.93 52.7471L435.838 52.624L434.238 53.824ZM436.526 56.84L435.111 58.2542L435.136 58.2786L435.161 58.3021L436.526 56.84ZM440.582 59.232L439.879 61.1047L439.914 61.1177L439.949 61.1294L440.582 59.232ZM455.662 58.192L454.633 56.477L454.62 56.4848L454.607 56.4927L455.662 58.192ZM451.71 46.648L451.061 48.5399L451.093 48.5508L451.125 48.5607L451.71 46.648ZM441.934 44.152L441.522 46.1091L441.535 46.1119L441.934 44.152ZM428.414 39.888L427.533 41.6836L427.553 41.6935L427.573 41.7029L428.414 39.888ZM419.99 32.92L418.326 34.0294L418.332 34.0387L418.338 34.0479L419.99 32.92ZM420.614 10.768L418.998 9.58965L418.99 9.60075L418.982 9.61196L420.614 10.768ZM430.702 2.968L429.903 1.13433L430.702 2.968ZM458.574 2.032L457.919 3.922L457.931 3.92576L458.574 2.032ZM467.83 7.02399L469.11 5.48755L467.83 7.02399ZM473.446 13.68L471.678 14.6158L471.695 14.6472L471.712 14.6779L473.446 13.68ZM475.526 20.44H477.526V20.4088L477.525 20.3775L475.526 20.44ZM474.902 22L473.383 20.6984L473.374 20.709L473.365 20.7196L474.902 22ZM457.638 22.208L456.743 23.9968V23.9969L457.638 22.208ZM456.182 20.856L454.252 21.3822L454.338 21.6954L454.518 21.9654L456.182 20.856ZM452.854 16.904L451.729 18.5578L451.767 18.5835L451.806 18.6073L452.854 16.904ZM438.814 16.8L439.874 18.496L439.883 18.4903L439.892 18.4845L438.814 16.8ZM437.67 25.328L436.158 26.6379L436.182 26.6657L436.208 26.6926L437.67 25.328ZM442.35 28.032L441.681 29.9169L441.69 29.9202L441.7 29.9234L442.35 28.032ZM451.398 30.424L450.971 32.378L451.001 32.3845L451.03 32.39L451.398 30.424ZM466.686 34.896L465.843 36.71L465.857 36.7162L465.87 36.7223L466.686 34.896ZM475.214 41.76L473.525 42.8311L473.54 42.8552L473.556 42.8789L475.214 41.76ZM473.966 64.432L475.531 65.6775L473.966 64.432ZM462.838 72.336L463.561 74.2005L463.569 74.1977L463.576 74.1948L462.838 72.336ZM446.614 73.04C439.85 73.04 434.383 72.0907 430.131 70.2868L428.569 73.9692C433.469 76.048 439.511 77.04 446.614 77.04V73.04ZM430.154 70.297C425.816 68.3906 422.661 65.984 420.558 63.1392L417.341 65.5168C419.953 69.0507 423.732 71.844 428.545 73.959L430.154 70.297ZM420.558 63.1392C418.415 60.2395 417.326 57.2234 417.204 54.0591L413.207 54.2129C413.363 58.2593 414.77 62.0379 417.341 65.5168L420.558 63.1392ZM417.206 54.136C417.206 54.123 417.207 54.1203 417.206 54.1252C417.205 54.1304 417.203 54.1374 417.2 54.1438C417.197 54.1501 417.196 54.1502 417.201 54.1434C417.206 54.1363 417.219 54.1195 417.244 54.0942L414.415 51.2658C413.65 52.0316 413.206 53.0162 413.206 54.136H417.206ZM417.244 54.0942C417.395 53.9428 417.456 53.952 417.494 53.952V49.952C416.284 49.952 415.235 50.4466 414.415 51.2658L417.244 54.0942ZM417.494 53.952H430.598V49.952H417.494V53.952ZM430.598 53.952C430.97 53.952 431.233 53.9859 431.408 54.0276C431.583 54.0691 431.633 54.1093 431.619 54.0995L433.944 50.8445C432.966 50.1462 431.746 49.952 430.598 49.952V53.952ZM431.722 54.168C432.055 54.3763 432.361 54.6546 432.638 55.024L435.838 52.624C435.283 51.8841 434.618 51.261 433.842 50.776L431.722 54.168ZM432.473 54.7652C433.134 56.0052 434.024 57.1664 435.111 58.2542L437.94 55.4258C437.086 54.5723 436.45 53.7228 436.002 52.8828L432.473 54.7652ZM435.161 58.3021C436.434 59.4903 438.029 60.4107 439.879 61.1047L441.284 57.3593C439.806 56.8053 438.697 56.131 437.89 55.3779L435.161 58.3021ZM439.949 61.1294C441.874 61.7709 444.11 62.064 446.614 62.064V58.064C444.402 58.064 442.618 57.8025 441.214 57.3346L439.949 61.1294ZM446.614 62.064C450.777 62.064 454.238 61.4296 456.716 59.8913L454.607 56.4927C453.064 57.4504 450.493 58.064 446.614 58.064V62.064ZM456.691 59.907C459.281 58.3531 460.782 56.0494 460.782 53.096H456.782C456.782 54.4412 456.203 55.5349 454.633 56.477L456.691 59.907ZM460.782 53.096C460.782 50.9779 460.017 49.127 458.435 47.7428L455.801 50.7532C456.437 51.3103 456.782 52.0248 456.782 53.096H460.782ZM458.435 47.7428C457.008 46.4941 454.884 45.5265 452.294 44.7353L451.125 48.5607C453.528 49.2948 455.009 50.0606 455.801 50.7532L458.435 47.7428ZM452.358 44.7561C449.815 43.8842 446.462 43.0321 442.332 42.1921L441.535 46.1119C445.586 46.9359 448.751 47.7478 451.061 48.5399L452.358 44.7561ZM442.346 42.1949C437.182 41.1078 432.827 39.7272 429.254 38.0731L427.573 41.7029C431.489 43.5155 436.147 44.9775 441.522 46.1091L442.346 42.1949ZM429.295 38.0924C425.871 36.4131 423.354 34.2997 421.641 31.7921L418.338 34.0479C420.508 37.2256 423.607 39.7575 427.533 41.6836L429.295 38.0924ZM421.654 31.8106C419.977 29.2953 419.078 26.0986 419.078 22.104H415.078C415.078 26.7067 416.12 30.7207 418.326 34.0294L421.654 31.8106ZM419.078 22.104C419.078 18.2725 420.137 14.901 422.246 11.924L418.982 9.61196C416.376 13.291 415.078 17.4769 415.078 22.104H419.078ZM422.23 11.9463C424.419 8.94347 427.482 6.55175 431.5 4.80167L429.903 1.13433C425.325 3.12825 421.661 5.93652 418.998 9.58965L422.23 11.9463ZM431.5 4.80167C435.491 3.06369 440.303 2.16 445.99 2.16V-1.84C439.89 -1.84 434.51 -0.871698 429.903 1.13433L431.5 4.80167ZM445.99 2.16C450.605 2.16 454.57 2.76262 457.919 3.92197L459.228 0.142025C455.366 -1.19463 450.942 -1.84 445.99 -1.84V2.16ZM457.931 3.92576C461.417 5.10978 464.275 6.66497 466.549 8.56044L469.11 5.48755C466.393 3.22303 463.08 1.45022 459.217 0.138233L457.931 3.92576ZM466.549 8.56044C468.888 10.5092 470.575 12.5327 471.678 14.6158L475.213 12.7442C473.82 10.1126 471.764 7.6988 469.11 5.48755L466.549 8.56044ZM471.712 14.6779C472.897 16.7346 473.469 18.6697 473.527 20.5025L477.525 20.3775C477.443 17.7729 476.629 15.2014 475.179 12.6821L471.712 14.6779ZM473.526 20.44C473.526 20.4454 473.539 20.517 473.383 20.6984L476.42 23.3016C477.097 22.5123 477.526 21.5439 477.526 20.44H473.526ZM473.365 20.7196C473.385 20.6962 473.41 20.6716 473.441 20.6499C473.47 20.6284 473.495 20.6165 473.509 20.611C473.534 20.601 473.492 20.624 473.342 20.624V24.624C474.449 24.624 475.61 24.2744 476.438 23.2804L473.365 20.7196ZM473.342 20.624H459.614V24.624H473.342V20.624ZM459.614 20.624C459.091 20.624 458.753 20.5294 458.532 20.4191L456.743 23.9969C457.632 24.4413 458.611 24.624 459.614 24.624V20.624ZM458.532 20.4191C458.348 20.327 458.109 20.1415 457.846 19.7466L454.518 21.9654C455.086 22.8185 455.818 23.5343 456.743 23.9968L458.532 20.4191ZM458.111 20.3298C457.522 18.1677 455.987 16.4841 453.902 15.2007L451.806 18.6073C453.325 19.5426 454.01 20.4936 454.252 21.3822L458.111 20.3298ZM453.978 15.2501C451.814 13.7785 449.094 13.136 445.99 13.136V17.136C448.571 17.136 450.427 17.6721 451.729 18.5578L453.978 15.2501ZM445.99 13.136C442.73 13.136 439.911 13.7234 437.736 15.1155L439.892 18.4845C441.183 17.658 443.148 17.136 445.99 17.136V13.136ZM437.754 15.104C435.42 16.5627 434.318 18.8865 434.318 21.688H438.318C438.318 20.0522 438.88 19.1173 439.874 18.496L437.754 15.104ZM434.318 21.688C434.318 23.5518 434.939 25.2312 436.158 26.6379L439.181 24.0181C438.598 23.3448 438.318 22.5975 438.318 21.688H434.318ZM436.208 26.6926C437.491 28.0674 439.392 29.1048 441.681 29.9169L443.019 26.1471C441.009 25.4339 439.79 24.6686 439.132 23.9634L436.208 26.6926ZM441.7 29.9234C444.024 30.7223 447.125 31.5388 450.971 32.378L451.824 28.47C448.044 27.6452 445.113 26.8671 443 26.1406L441.7 29.9234ZM451.03 32.39C457.249 33.5516 462.167 35.0032 465.843 36.71L467.528 33.082C463.439 31.1835 458.165 29.6537 451.765 28.458L451.03 32.39ZM465.87 36.7223C469.488 38.3374 471.982 40.3982 473.525 42.8311L476.903 40.6889C474.84 37.4364 471.648 34.9213 467.501 33.0697L465.87 36.7223ZM473.556 42.8789C475.153 45.2442 476.022 48.3282 476.022 52.264H480.022C480.022 47.7411 479.019 43.8225 476.871 40.6411L473.556 42.8789ZM476.022 52.264C476.022 56.5677 474.798 60.1743 472.401 63.1865L475.531 65.6775C478.541 61.8951 480.022 57.3897 480.022 52.264H476.022ZM472.401 63.1865C469.948 66.2679 466.545 68.7121 462.1 70.4772L463.576 74.1948C468.56 72.2159 472.575 69.3908 475.531 65.6775L472.401 63.1865ZM462.114 70.4715C457.747 72.1661 452.594 73.04 446.614 73.04V77.04C452.975 77.04 458.637 76.1113 463.561 74.2005L462.114 70.4715ZM498.415 71.92L499.222 70.0902L498.415 71.92ZM487.391 62.56L485.693 63.6175L485.697 63.6238L485.701 63.6301L487.391 62.56ZM483.023 46.752L481.023 46.7985L481.024 46.8192L481.025 46.8398L483.023 46.752ZM483.023 28.76L481.025 28.6712L481.024 28.6923L481.023 28.7135L483.023 28.76ZM487.391 13.056L485.698 11.9911L485.693 11.9985L487.391 13.056ZM498.519 3.384L497.699 1.55963L497.689 1.56418L498.519 3.384ZM531.591 3.384L532.42 1.56418L531.591 3.384ZM542.719 13.056L541.026 14.1209L541.03 14.1271L541.034 14.1333L542.719 13.056ZM547.087 28.76L545.088 28.8266L545.088 28.8398L545.089 28.8529L547.087 28.76ZM547.087 46.752L545.089 46.6591L545.088 46.6726L545.088 46.6861L547.087 46.752ZM542.719 62.56L541.034 61.4827L541.029 61.4899L542.719 62.56ZM531.695 71.92L530.887 70.0902L531.695 71.92ZM523.999 56.736L522.628 55.2796L522.617 55.2898L522.606 55.3002L523.999 56.736ZM527.743 46.128L525.745 46.0372L525.744 46.054L525.743 46.0709L527.743 46.128ZM527.743 29.072L525.744 29.157L525.745 29.1671L527.743 29.072ZM525.871 21.168L524.082 22.0624L524.1 22.0987L524.12 22.1342L525.871 21.168ZM521.503 16.592L520.582 18.3675L521.503 16.592ZM504.239 21.168L505.99 22.1342L505.997 22.1217L506.003 22.1092L504.239 21.168ZM502.367 29.072L500.368 28.987L500.368 29.0057L500.367 29.0244L502.367 29.072ZM502.367 46.128L500.367 46.1734L500.368 46.1935L500.368 46.2136L502.367 46.128ZM506.111 56.736L504.718 58.1718L504.729 58.1822L504.74 58.1924L506.111 56.736ZM515.055 73.04C508.89 73.04 503.629 72.0346 499.222 70.0902L497.607 73.7498C502.629 75.9654 508.462 77.04 515.055 77.04V73.04ZM499.222 70.0902C494.852 68.1624 491.492 65.2987 489.08 61.4899L485.701 63.6301C488.558 68.1413 492.548 71.5176 497.607 73.7498L499.222 70.0902ZM489.088 61.5025C486.678 57.6333 485.287 52.72 485.021 46.6642L481.025 46.8398C481.313 53.4026 482.834 59.0281 485.693 63.6175L489.088 61.5025ZM485.022 46.7055C484.953 43.7397 484.919 40.7738 484.919 37.808H480.919C480.919 40.8048 480.953 43.8017 481.023 46.7985L485.022 46.7055ZM484.919 37.808C484.919 34.7725 484.953 31.772 485.022 28.8065L481.023 28.7135C480.953 31.7107 480.919 34.7422 480.919 37.808H484.919ZM485.021 28.8488C485.287 22.8664 486.676 17.986 489.088 14.1135L485.693 11.9985C482.836 16.5846 481.313 22.1736 481.025 28.6712L485.021 28.8488ZM489.084 14.1209C491.575 10.1598 494.981 7.19467 499.348 5.20381L497.689 1.56418C492.627 3.872 488.614 7.35487 485.698 11.9911L489.084 14.1209ZM499.338 5.20834C503.82 3.19465 509.044 2.16 515.055 2.16V-1.84C508.585 -1.84 502.785 -0.725325 497.699 1.55966L499.338 5.20834ZM515.055 2.16C521.139 2.16 526.357 3.19616 530.761 5.20381L532.42 1.56418C527.395 -0.726831 521.589 -1.84 515.055 -1.84V2.16ZM530.761 5.20381C535.128 7.19467 538.534 10.1598 541.026 14.1209L544.412 11.9911C541.495 7.35487 537.483 3.872 532.42 1.56418L530.761 5.20381ZM541.034 14.1333C543.502 17.9944 544.889 22.8588 545.088 28.8266L549.086 28.6934C548.868 22.1812 547.343 16.5763 544.404 11.9787L541.034 14.1333ZM545.089 28.8529C545.226 31.8026 545.295 34.7876 545.295 37.808H549.295C549.295 34.727 549.225 31.68 549.084 28.6671L545.089 28.8529ZM545.295 37.808C545.295 40.7583 545.226 43.7087 545.089 46.6591L549.084 46.8449C549.225 43.8327 549.295 40.8204 549.295 37.808H545.295ZM545.088 46.6861C544.889 52.7277 543.5 57.6249 541.034 61.4827L544.404 63.6373C547.345 59.0364 548.869 53.395 549.086 46.8179L545.088 46.6861ZM541.029 61.4899C538.617 65.2987 535.257 68.1624 530.887 70.0902L532.502 73.7498C537.562 71.5176 541.551 68.1413 544.408 63.6301L541.029 61.4899ZM530.887 70.0902C526.48 72.0346 521.22 73.04 515.055 73.04V77.04C521.647 77.04 527.48 75.9654 532.502 73.7498L530.887 70.0902ZM515.055 62.064C519.163 62.064 522.672 60.8079 525.391 58.1718L522.606 55.3002C520.749 57.1014 518.295 58.064 515.055 58.064V62.064ZM525.369 58.1924C528.27 55.462 529.595 51.3072 529.742 46.1851L525.743 46.0709C525.612 50.6554 524.442 53.5727 522.628 55.2796L525.369 58.1924ZM529.741 46.2188C529.88 43.1417 529.951 40.2338 529.951 37.496H525.951C525.951 40.1661 525.882 43.013 525.745 46.0372L529.741 46.2188ZM529.951 37.496C529.951 34.7579 529.88 31.9181 529.74 28.9769L525.745 29.1671C525.882 32.0499 525.951 34.8261 525.951 37.496H529.951ZM529.741 28.987C529.594 25.5407 528.93 22.5725 527.622 20.2018L524.12 22.1342C525.03 23.7848 525.614 26.0859 525.744 29.157L529.741 28.987ZM527.659 20.2736C526.451 17.8564 524.709 16.0017 522.423 14.8165L520.582 18.3675C522.04 19.1236 523.21 20.3196 524.082 22.0624L527.659 20.2736ZM522.423 14.8165C520.227 13.6775 517.753 13.136 515.055 13.136V17.136C517.209 17.136 519.035 17.5652 520.582 18.3675L522.423 14.8165ZM515.055 13.136C512.415 13.136 509.979 13.6816 507.79 14.8165L509.631 18.3675C511.187 17.561 512.979 17.136 515.055 17.136V13.136ZM507.79 14.8165C505.517 15.9951 503.75 17.8335 502.474 20.2268L506.003 22.1092C506.946 20.3425 508.16 19.1303 509.631 18.3675L507.79 14.8165ZM502.487 20.2018C501.18 22.5725 500.515 25.5407 500.368 28.987L504.365 29.157C504.496 26.0859 505.079 23.7848 505.99 22.1342L502.487 20.2018ZM500.367 29.0244C500.298 31.9511 500.263 34.775 500.263 37.496H504.263C504.263 34.809 504.297 32.0169 504.366 29.1196L500.367 29.0244ZM500.263 37.496C500.263 40.2169 500.298 43.1095 500.367 46.1734L504.366 46.0826C504.297 43.0452 504.263 40.1831 504.263 37.496H500.263ZM500.368 46.2136C500.587 51.3171 501.911 55.4495 504.718 58.1718L507.503 55.3002C505.734 53.5852 504.562 50.6456 504.365 46.0424L500.368 46.2136ZM504.74 58.1924C507.512 60.801 511.003 62.064 515.055 62.064V58.064C511.896 58.064 509.424 57.1083 507.481 55.2796L504.74 58.1924ZM569.334 71.92L570.141 70.0902L569.334 71.92ZM558.31 62.56L556.612 63.6175L556.616 63.6238L556.62 63.6301L558.31 62.56ZM553.942 46.752L551.942 46.7985L551.943 46.8192L551.944 46.8398L553.942 46.752ZM553.942 28.76L551.944 28.6712L551.943 28.6923L551.942 28.7135L553.942 28.76ZM558.31 13.056L556.617 11.9911L556.612 11.9985L558.31 13.056ZM569.438 3.384L568.618 1.55963L568.608 1.56418L569.438 3.384ZM602.51 3.384L603.339 1.56418L602.51 3.384ZM613.638 13.056L611.945 14.1209L611.949 14.1271L611.953 14.1333L613.638 13.056ZM618.006 28.76L616.007 28.8266L616.007 28.8398L616.008 28.8529L618.006 28.76ZM618.006 46.752L616.008 46.6591L616.007 46.6726L616.007 46.6861L618.006 46.752ZM613.638 62.56L611.953 61.4827L611.948 61.4899L613.638 62.56ZM602.614 71.92L601.806 70.0902L602.614 71.92ZM594.918 56.736L593.547 55.2796L593.536 55.2898L593.525 55.3002L594.918 56.736ZM598.662 46.128L596.664 46.0372L596.663 46.054L596.663 46.0709L598.662 46.128ZM598.662 29.072L596.664 29.157L596.664 29.1671L598.662 29.072ZM596.79 21.168L595.001 22.0624L595.019 22.0987L595.039 22.1342L596.79 21.168ZM592.422 16.592L591.501 18.3675L592.422 16.592ZM575.158 21.168L576.909 22.1342L576.916 22.1217L576.922 22.1092L575.158 21.168ZM573.286 29.072L571.288 28.987L571.287 29.0057L571.286 29.0244L573.286 29.072ZM573.286 46.128L571.286 46.1734L571.287 46.1935L571.288 46.2136L573.286 46.128ZM577.03 56.736L575.637 58.1718L575.648 58.1822L575.659 58.1924L577.03 56.736ZM585.974 73.04C579.809 73.04 574.548 72.0346 570.141 70.0902L568.526 73.7498C573.548 75.9654 579.381 77.04 585.974 77.04V73.04ZM570.141 70.0902C565.771 68.1624 562.412 65.2987 559.999 61.4899L556.62 63.6301C559.477 68.1413 563.467 71.5176 568.526 73.7498L570.141 70.0902ZM560.007 61.5025C557.597 57.6333 556.206 52.72 555.94 46.6642L551.944 46.8398C552.232 53.4026 553.753 59.0281 556.612 63.6175L560.007 61.5025ZM555.941 46.7055C555.872 43.7397 555.838 40.7738 555.838 37.808H551.838C551.838 40.8048 551.873 43.8017 551.942 46.7985L555.941 46.7055ZM555.838 37.808C555.838 34.7725 555.872 31.772 555.941 28.8065L551.942 28.7135C551.873 31.7107 551.838 34.7422 551.838 37.808H555.838ZM555.94 28.8488C556.206 22.8664 557.595 17.986 560.007 14.1135L556.612 11.9985C553.755 16.5846 552.232 22.1736 551.944 28.6712L555.94 28.8488ZM560.003 14.1209C562.494 10.1598 565.9 7.19467 570.267 5.20381L568.608 1.56418C563.546 3.872 559.533 7.35487 556.617 11.9911L560.003 14.1209ZM570.257 5.20834C574.739 3.19465 579.963 2.16 585.974 2.16V-1.84C579.504 -1.84 573.704 -0.725325 568.618 1.55966L570.257 5.20834ZM585.974 2.16C592.058 2.16 597.276 3.19616 601.68 5.20381L603.339 1.56418C598.314 -0.726831 592.508 -1.84 585.974 -1.84V2.16ZM601.68 5.20381C606.047 7.19467 609.453 10.1598 611.945 14.1209L615.331 11.9911C612.414 7.35487 608.402 3.872 603.339 1.56418L601.68 5.20381ZM611.953 14.1333C614.421 17.9944 615.808 22.8588 616.007 28.8266L620.005 28.6934C619.788 22.1812 618.262 16.5763 615.323 11.9787L611.953 14.1333ZM616.008 28.8529C616.145 31.8026 616.214 34.7876 616.214 37.808H620.214C620.214 34.727 620.144 31.68 620.004 28.6671L616.008 28.8529ZM616.214 37.808C616.214 40.7583 616.145 43.7087 616.008 46.6591L620.004 46.8449C620.144 43.8327 620.214 40.8204 620.214 37.808H616.214ZM616.007 46.6861C615.808 52.7277 614.419 57.6249 611.953 61.4827L615.323 63.6373C618.264 59.0364 619.788 53.395 620.005 46.8179L616.007 46.6861ZM611.948 61.4899C609.536 65.2987 606.176 68.1624 601.806 70.0902L603.421 73.7498C608.481 71.5176 612.47 68.1413 615.327 63.6301L611.948 61.4899ZM601.806 70.0902C597.399 72.0346 592.139 73.04 585.974 73.04V77.04C592.566 77.04 598.399 75.9654 603.421 73.7498L601.806 70.0902ZM585.974 62.064C590.082 62.064 593.591 60.8079 596.31 58.1718L593.525 55.3002C591.668 57.1014 589.214 58.064 585.974 58.064V62.064ZM596.288 58.1924C599.19 55.462 600.515 51.3072 600.661 46.1851L596.663 46.0709C596.532 50.6554 595.361 53.5727 593.547 55.2796L596.288 58.1924ZM600.66 46.2188C600.799 43.1417 600.87 40.2338 600.87 37.496H596.87C596.87 40.1661 596.801 43.013 596.664 46.0372L600.66 46.2188ZM600.87 37.496C600.87 34.7579 600.799 31.9181 600.659 28.9769L596.664 29.1671C596.801 32.0499 596.87 34.8261 596.87 37.496H600.87ZM600.66 28.987C600.513 25.5407 599.849 22.5725 598.541 20.2018L595.039 22.1342C595.949 23.7848 596.533 26.0859 596.664 29.157L600.66 28.987ZM598.579 20.2736C597.37 17.8564 595.628 16.0017 593.342 14.8165L591.501 18.3675C592.959 19.1236 594.129 20.3196 595.001 22.0624L598.579 20.2736ZM593.342 14.8165C591.146 13.6775 588.672 13.136 585.974 13.136V17.136C588.128 17.136 589.954 17.5652 591.501 18.3675L593.342 14.8165ZM585.974 13.136C583.334 13.136 580.898 13.6816 578.709 14.8165L580.55 18.3675C582.106 17.561 583.898 17.136 585.974 17.136V13.136ZM578.709 14.8165C576.436 15.9951 574.669 17.8335 573.393 20.2268L576.922 22.1092C577.865 20.3425 579.079 19.1303 580.55 18.3675L578.709 14.8165ZM573.407 20.2018C572.099 22.5725 571.434 25.5407 571.288 28.987L575.284 29.157C575.415 26.0859 575.998 23.7848 576.909 22.1342L573.407 20.2018ZM571.286 29.0244C571.217 31.9511 571.182 34.775 571.182 37.496H575.182C575.182 34.809 575.216 32.0169 575.285 29.1196L571.286 29.0244ZM571.182 37.496C571.182 40.2169 571.217 43.1095 571.286 46.1734L575.285 46.0826C575.216 43.0452 575.182 40.1831 575.182 37.496H571.182ZM571.288 46.2136C571.506 51.3171 572.83 55.4495 575.637 58.1718L578.422 55.3002C576.653 53.5852 575.481 50.6456 575.284 46.0424L571.288 46.2136ZM575.659 58.1924C578.431 60.801 581.922 62.064 585.974 62.064V58.064C582.815 58.064 580.343 57.1083 578.4 55.2796L575.659 58.1924ZM627.877 73.272L626.372 74.589L626.415 74.6391L626.463 74.6862L627.877 73.272ZM627.877 1.928L629.291 3.34222L629.291 3.34221L627.877 1.928ZM643.269 2.032L641.764 3.349L641.851 3.44935L641.952 3.53715L643.269 2.032ZM644.309 3.17599L642.52 4.07042L642.566 4.1621L642.621 4.24861L644.309 3.17599ZM669.685 43.112L667.997 44.1846L671.685 49.9887V43.112H669.685ZM670.413 1.928L671.827 3.34222V3.34221L670.413 1.928ZM686.637 1.928L685.223 3.34221L685.223 3.34222L686.637 1.928ZM686.637 73.272L688.051 74.6862L688.098 74.6391L688.142 74.589L686.637 73.272ZM671.141 73.168L669.636 74.485L669.68 74.5351L669.727 74.5822L671.141 73.168ZM670.205 72.024L668.535 73.1251L668.541 73.1334L670.205 72.024ZM644.829 33.544L646.498 32.4429L642.829 26.8783V33.544H644.829ZM644.101 73.272L645.515 74.6862L645.562 74.6391L645.606 74.589L644.101 73.272ZM629.749 72C629.452 72 629.358 71.9247 629.291 71.8578L626.463 74.6862C627.366 75.59 628.52 76 629.749 76V72ZM629.382 71.955C629.194 71.7399 629.149 71.5767 629.149 71.4H625.149C625.149 72.61 625.589 73.6947 626.372 74.589L629.382 71.955ZM629.149 71.4V3.8H625.149V71.4H629.149ZM629.149 3.8C629.149 3.50316 629.224 3.40914 629.291 3.34222L626.463 0.513781C625.559 1.41752 625.149 2.5715 625.149 3.8H629.149ZM629.291 3.34221C629.358 3.27528 629.452 3.2 629.749 3.2V-0.800005C628.52 -0.800005 627.366 -0.389956 626.463 0.513788L629.291 3.34221ZM629.749 3.2H640.773V-0.800005H629.749V3.2ZM640.773 3.2C641.216 3.2 641.493 3.25352 641.648 3.30536C641.791 3.35305 641.796 3.38609 641.764 3.349L644.774 0.714989C643.731 -0.476645 642.188 -0.800005 640.773 -0.800005V3.2ZM641.952 3.53715C642.194 3.74905 642.359 3.91122 642.465 4.02734C642.517 4.08431 642.544 4.11972 642.556 4.13489C642.569 4.15243 642.55 4.1297 642.52 4.07042L646.098 2.28157C645.765 1.61722 645.139 1.01104 644.586 0.52684L641.952 3.53715ZM642.621 4.24861L667.997 44.1846L671.373 42.0394L645.997 2.10338L642.621 4.24861ZM671.685 43.112V3.8H667.685V43.112H671.685ZM671.685 3.8C671.685 3.50316 671.76 3.40914 671.827 3.34222L668.999 0.513781C668.095 1.41752 667.685 2.5715 667.685 3.8H671.685ZM671.827 3.34221C671.894 3.27528 671.988 3.2 672.285 3.2V-0.800005C671.056 -0.800005 669.902 -0.389956 668.999 0.513788L671.827 3.34221ZM672.285 3.2H684.765V-0.800005H672.285V3.2ZM684.765 3.2C685.062 3.2 685.156 3.27528 685.223 3.34221L688.051 0.51379C687.147 -0.389957 685.993 -0.800005 684.765 -0.800005V3.2ZM685.223 3.34222C685.289 3.40914 685.365 3.50317 685.365 3.8H689.365C689.365 2.57149 688.955 1.41752 688.051 0.513779L685.223 3.34222ZM685.365 3.8V71.296H689.365V3.8H685.365ZM685.365 71.296C685.365 71.5927 685.286 71.7786 685.132 71.955L688.142 74.589C688.958 73.6561 689.365 72.5247 689.365 71.296H685.365ZM685.223 71.8578C685.156 71.9247 685.062 72 684.765 72V76C685.993 76 687.147 75.59 688.051 74.6862L685.223 71.8578ZM684.765 72H673.637V76H684.765V72ZM673.637 72C672.836 72 672.602 71.8011 672.555 71.7538L669.727 74.5822C670.789 75.6442 672.219 76 673.637 76V72ZM672.646 71.851C672.411 71.583 672.228 71.367 672.091 71.1995C672.022 71.116 671.97 71.0493 671.93 70.9976C671.91 70.972 671.896 70.952 671.885 70.9371C671.879 70.9297 671.875 70.9241 671.873 70.9202C671.87 70.9162 671.869 70.9144 671.869 70.9146L668.541 73.1334C668.764 73.4681 669.164 73.9457 669.636 74.485L672.646 71.851ZM671.874 70.9229L646.498 32.4429L643.159 34.6451L668.535 73.1251L671.874 70.9229ZM642.829 33.544V71.4H646.829V33.544H642.829ZM642.829 71.4C642.829 71.5767 642.784 71.7399 642.596 71.955L645.606 74.589C646.388 73.6947 646.829 72.61 646.829 71.4H642.829ZM642.687 71.8578C642.62 71.9247 642.526 72 642.229 72V76C643.457 76 644.611 75.59 645.515 74.6862L642.687 71.8578ZM642.229 72H629.749V76H642.229V72Z" fill="url(#paint1_linear_0_1)"/>
<defs>
<linearGradient id="paint0_linear_0_1" x1="22" y1="126" x2="668" y2="126" gradientUnits="userSpaceOnUse">
<stop stop-color="#BCFB69"/>
<stop offset="1" stop-color="#26BBAC"/>
</linearGradient>
<linearGradient id="paint1_linear_0_1" x1="-5" y1="106" x2="695" y2="106" gradientUnits="userSpaceOnUse">
<stop stop-color="#BCFB69"/>
<stop offset="1" stop-color="#26BBAC"/>
</linearGradient>
</defs>
</svg>
