<svg width="571" height="201" viewBox="0 0 571 201" fill="none" xmlns="http://www.w3.org/2000/svg">
<path d="M121.091 136.766H113.905V135H128V136.766H123.67L101.468 201H93.7296L70.2377 136.766H66V135H96.1248V136.766H89.584L105.061 183.245L121.091 136.766Z" fill="#B4B4B4" fill-opacity="0.4"/>
<path d="M206.443 135V137.043H196.596V197.957H199.94C211.459 197.957 216.568 189.6 222.049 178.271H224L222.235 200H173V197.957H178.481V137.043H173V135H206.443Z" fill="#B4B4B4" fill-opacity="0.4"/>
<path d="M31.8378 135C51.8529 135 62 147.083 62 167.863C62 188.642 52.2252 201 30.7207 201C9.21622 201 0 189.191 0 169.053C0 148.914 11.0781 135 31.8378 135ZM42.8228 165.025C42.8228 146.259 42.2643 136.922 31.0931 136.922C19.9219 136.922 19.0841 146.626 19.0841 165.391V171.982C19.0841 189.191 20.2012 199.078 31.0931 199.078C41.985 199.078 42.8228 190.198 42.8228 171.799V165.025Z" fill="#B4B4B4" fill-opacity="0.4"/>
<path d="M153.164 157.677V198.402H158V200H132.338V198.402H137.095V159.275H132V157.677H153.164ZM145.393 135C150.746 135 153.95 137.755 153.95 143.184C153.95 147.896 151.443 151.542 145.224 151.542C138.229 151.542 136.587 147.004 136.587 143.276C136.587 138.923 138.915 135.01 145.403 135.01L145.393 135Z" fill="#B4B4B4" fill-opacity="0.4"/>
<mask id="mask0_0_1" style="mask-type:alpha" maskUnits="userSpaceOnUse" x="240" y="0" width="82" height="201">
<path d="M306.775 70.125V196.059H321.999V201H241.213V196.059H256.186V75.0661H240.148V70.125H306.775ZM282.311 0C299.163 0 309.25 8.52016 309.25 25.3071C309.25 39.8769 301.356 51.1526 281.778 51.1526C259.757 51.1526 254.589 37.1213 254.589 25.5922C254.589 12.1309 261.919 0.0316734 282.342 0.0316734L282.311 0Z" fill="white"/>
</mask>
<g mask="url(#mask0_0_1)">
<rect x="-388.754" y="-152.301" width="1037.12" height="583.314" fill="white"/>
</g>
<path fill-rule="evenodd" clip-rule="evenodd" d="M527.8 149.107H533.9V183.571C533.9 197.129 541.789 200.305 552.774 200.305C566.315 200.305 569.985 192.429 570.982 183.898L569.09 183.684C568.093 191.119 564.768 195.932 559.436 195.932C555.548 195.932 554.551 192.429 554.551 185.978V149.107H568.988V147.141H554.551V128L533.9 133.028V147.141H527.8V149.107ZM371.573 157.255V147.176H345V149.144H351.072V197.322H345V199.29H376.323V197.322H371.586V167.095C371.586 158.227 375.879 151.326 380.515 151.326C383.271 151.326 384.592 152.424 384.592 161.734V197.334H380.07V199.302H411.28V197.334H405.106V164.37C405.106 151.112 398.273 146.078 388.009 146.078C377.086 146.078 373.453 151.78 371.573 157.255ZM467.897 171.008C468.542 154.728 461.32 146.091 444.406 146.091V146.078C429.44 146.078 416.721 154.388 416.721 173.299C416.721 189.151 425.345 200.307 444.518 200.307C459.819 200.307 465.415 193.092 467.897 183.687L465.961 183.359C463.591 191.783 458.205 196.92 450.226 196.92C439.777 196.92 437.519 188.169 437.519 175.276V171.008H467.897ZM448.712 163.479V168.83H437.618V163.479C437.618 151.882 439.666 148.168 443.438 148.168C447.843 148.168 448.712 151.996 448.712 163.479ZM477.946 180.805H479.271C483.361 194.086 490.115 197.899 499.188 197.899C507.368 197.899 510.477 194.964 510.477 190.825C510.477 186.259 505.78 184.999 498.341 183.003L498.34 183.003C497.792 182.856 497.229 182.705 496.652 182.548C487.796 180.153 477.958 176.779 477.958 164.689C477.958 153.578 485.706 146.291 497.429 146.291C502.297 146.291 505.61 147.495 508.604 148.799C508.871 148.908 509.101 149.008 509.311 149.099L509.311 149.099C510.144 149.461 510.642 149.677 511.701 149.677C513.357 149.677 514.135 148.799 515.574 146.078H516.798V162.733H515.473C511.484 152.712 505.852 148.574 497.99 148.574C490.688 148.574 487.706 151.508 487.706 154.895C487.706 159.423 493.145 160.84 499.59 162.518C500.266 162.694 500.954 162.873 501.647 163.059C510.388 165.341 520.124 168.828 520.124 181.683C520.124 194.538 511.943 200.307 499.43 200.307C494.116 200.307 490.357 199.216 486.152 197.146C485.489 196.707 484.495 196.281 484.049 196.281C482.609 196.281 481.068 197.259 479.296 200.307H477.971V180.817L477.946 180.805Z" fill="#B4B4B4" fill-opacity="0.4"/>
</svg>
