<svg width="644" height="121" viewBox="0 0 644 121" fill="none" xmlns="http://www.w3.org/2000/svg">
<path d="M121.091 56.7394H113.905V55H128V56.7394H123.67L101.468 120H93.7296L70.2377 56.7394H66V55H96.1248V56.7394H89.584L105.061 102.514L121.091 56.7394Z" fill="#B4B4B4" fill-opacity="0.4"/>
<path d="M206.787 55V57.0429H197.133V117.957H200.412C211.705 117.957 216.714 109.6 222.087 98.2714H224L222.27 120H174V117.957H179.373V57.0429H174V55H206.787Z" fill="#B4B4B4" fill-opacity="0.4"/>
<path d="M159.164 77.6773V118.402H164V120H138.338V118.402H143.095V79.2751H138V77.6773H159.164ZM151.393 55C156.746 55 159.95 57.7553 159.95 63.1839C159.95 67.8955 157.443 71.5419 151.224 71.5419C144.229 71.5419 142.587 67.0044 142.587 63.2761C142.587 58.9229 144.915 55.0102 151.403 55.0102L151.393 55Z" fill="#B4B4B4" fill-opacity="0.4"/>
<path d="M255.164 77.6773V118.402H260V120H234.338V118.402H239.095V79.2751H234V77.6773H255.164ZM247.393 55C252.746 55 255.95 57.7553 255.95 63.1839C255.95 67.8955 253.443 71.5419 247.224 71.5419C240.229 71.5419 238.587 67.0044 238.587 63.2761C238.587 58.9229 240.915 55.0102 247.403 55.0102L247.393 55Z" fill="#B4B4B4" fill-opacity="0.4"/>
<path d="M31.8378 55C51.8529 55 62 67.0832 62 87.8627C62 108.642 52.2252 121 30.7207 121C9.21622 121 0 109.191 0 89.0527C0 68.914 11.0781 55 31.8378 55ZM42.8228 85.025C42.8228 66.2594 42.2643 56.9223 31.0931 56.9223C19.9219 56.9223 19.0841 66.6255 19.0841 85.3911V91.982C19.0841 109.191 20.2012 119.078 31.0931 119.078C41.985 119.078 42.8228 110.198 42.8228 91.7989V85.025Z" fill="#B4B4B4" fill-opacity="0.4"/>
<path fill-rule="evenodd" clip-rule="evenodd" d="M572.152 35.4817H582.3V92.8244C582.3 115.384 595.427 120.668 613.703 120.668C636.234 120.668 642.34 107.564 644 93.3695L640.851 93.0131C639.192 105.383 633.66 113.392 624.788 113.392C618.32 113.392 616.661 107.564 616.661 96.8289V35.4817H640.681V32.211H616.661V0.36324L582.3 8.72877V32.211H572.152V35.4817ZM312.213 49.0379V32.2668H268V35.5412H278.102V115.702H268V118.977H320.117V115.702H312.234V65.4102C312.234 50.6541 319.378 39.1725 327.092 39.1725C331.678 39.1725 333.876 40.9987 333.876 56.4894V115.723H326.352V118.998H378.279V115.723H368.008V60.8763C368.008 38.8157 356.637 30.4406 339.561 30.4406C321.385 30.4406 315.341 39.9282 312.213 49.0379ZM472.482 71.92C473.555 44.8327 461.539 30.4616 433.396 30.4616V30.4406C408.496 30.4406 387.332 44.2671 387.332 75.7328C387.332 102.108 401.682 120.669 433.582 120.669C459.04 120.669 468.352 108.665 472.482 93.0159L469.261 92.4712C465.317 106.486 456.356 115.033 443.08 115.033C425.695 115.033 421.937 100.474 421.937 79.0218V71.92H472.482ZM440.561 59.3924V68.2958H422.102V59.3924C422.102 40.0982 425.509 33.9182 431.786 33.9182C439.116 33.9182 440.561 40.2867 440.561 59.3924ZM489.201 88.2209H491.406C498.212 110.319 509.449 116.662 524.544 116.662C538.156 116.662 543.329 111.78 543.329 104.894C543.329 97.2948 535.513 95.1984 523.136 91.8784C522.223 91.6336 521.286 91.3822 520.325 91.1214C505.59 87.1358 489.222 81.5226 489.222 61.407C489.222 42.919 502.113 30.7954 521.618 30.7954C529.717 30.7954 535.23 32.7986 540.212 34.9687C540.656 35.1491 541.04 35.316 541.389 35.4675C542.775 36.0698 543.603 36.4294 545.364 36.4294C548.121 36.4294 549.414 34.9687 551.81 30.4406H553.845V58.1518H551.64C545.004 41.4792 535.633 34.5931 522.551 34.5931C510.403 34.5931 505.442 39.476 505.442 45.11C505.442 52.6455 514.49 55.0018 525.215 57.7946L525.217 57.7952C526.341 58.0879 527.484 58.3855 528.636 58.6943C543.181 62.4921 559.379 68.2931 559.379 89.6816C559.379 111.07 545.767 120.669 524.947 120.669C516.106 120.669 509.852 118.853 502.855 115.41C501.752 114.68 500.099 113.971 499.357 113.971C496.961 113.971 494.396 115.598 491.449 120.669H489.244V88.2418L489.201 88.2209Z" fill="white"/>
</svg>
