<svg width="589" height="198" viewBox="0 0 589 198" fill="none" xmlns="http://www.w3.org/2000/svg">
<path d="M31.8378 131C51.8529 131 62 143.083 62 163.863C62 184.642 52.2252 197 30.7207 197C9.21622 197 0 185.191 0 165.053C0 144.914 11.0781 131 31.8378 131ZM42.8228 161.025C42.8228 142.259 42.2643 132.922 31.0931 132.922C19.9219 132.922 19.0841 142.626 19.0841 161.391V167.982C19.0841 185.191 20.2012 195.078 31.0931 195.078C41.985 195.078 42.8228 186.198 42.8228 167.799V161.025Z" fill="#B4B4B4" fill-opacity="0.4"/>
<path d="M300.443 132V134.043H290.596V194.957H293.94C305.459 194.957 310.568 186.6 316.049 175.271H318L316.235 197H267V194.957H272.481V134.043H267V132H300.443Z" fill="#B4B4B4" fill-opacity="0.4"/>
<path d="M252.164 154.677V195.402H257V197H231.338V195.402H236.095V156.275H231V154.677H252.164ZM244.393 132C249.746 132 252.95 134.755 252.95 140.184C252.95 144.896 250.443 148.542 244.224 148.542C237.229 148.542 235.587 144.004 235.587 140.276C235.587 135.923 237.915 132.01 244.403 132.01L244.393 132Z" fill="#B4B4B4" fill-opacity="0.4"/>
<path d="M348.164 154.677V195.402H353V197H327.338V195.402H332.095V156.275H327V154.677H348.164ZM340.393 132C345.746 132 348.95 134.755 348.95 140.184C348.95 144.896 346.443 148.542 340.224 148.542C333.229 148.542 331.587 144.004 331.587 140.276C331.587 135.923 333.915 132.01 340.403 132.01L340.393 132Z" fill="#B4B4B4" fill-opacity="0.4"/>
<mask id="mask0_0_1" style="mask-type:alpha" maskUnits="userSpaceOnUse" x="62" y="0" width="187" height="197">
<path d="M227.723 5.26796H206.109V0H248.506V5.26796H235.482L168.699 196.855H145.422L74.7588 5.26796H62.0117V0H152.626V5.26796H132.952L179.506 143.899L227.723 5.26796Z" fill="white"/>
</mask>
<g mask="url(#mask0_0_1)">
<rect x="-82.0039" y="-116.043" width="1567.59" height="881.705" fill="white"/>
</g>
<path fill-rule="evenodd" clip-rule="evenodd" d="M545.8 146.107H551.9V180.571C551.9 194.129 559.789 197.305 570.774 197.305C584.315 197.305 587.985 189.429 588.982 180.898L587.09 180.684C586.093 188.119 582.768 192.932 577.436 192.932C573.548 192.932 572.551 189.429 572.551 182.978V146.107H586.988V144.141H572.551V125L551.9 130.028V144.141H545.8V146.107ZM389.573 154.255V144.176H363V146.144H369.072V194.322H363V196.29H394.323V194.322H389.586V164.095C389.586 155.227 393.879 148.326 398.515 148.326C401.271 148.326 402.592 149.424 402.592 158.734V194.334H398.07V196.302H429.28V194.334H423.106V161.37C423.106 148.112 416.273 143.078 406.009 143.078C395.086 143.078 391.453 148.78 389.573 154.255ZM485.897 168.008C486.542 151.728 479.32 143.091 462.406 143.091V143.078C447.44 143.078 434.721 151.388 434.721 170.299C434.721 186.151 443.345 197.307 462.518 197.307C477.819 197.307 483.415 190.092 485.897 180.687L483.961 180.359C481.591 188.783 476.205 193.92 468.226 193.92C457.777 193.92 455.519 185.169 455.519 172.276V168.008H485.897ZM466.712 160.479V165.83H455.618V160.479C455.618 148.882 457.666 145.168 461.438 145.168C465.843 145.168 466.712 148.996 466.712 160.479ZM495.946 177.805H497.271C501.361 191.086 508.115 194.899 517.188 194.899C525.368 194.899 528.477 191.964 528.477 187.825C528.477 183.259 523.78 181.999 516.341 180.003L516.34 180.003C515.792 179.856 515.229 179.705 514.652 179.548C505.796 177.153 495.958 173.779 495.958 161.689C495.958 150.578 503.706 143.291 515.429 143.291C520.297 143.291 523.61 144.495 526.604 145.799C526.871 145.908 527.101 146.008 527.311 146.099L527.311 146.099C528.144 146.461 528.642 146.677 529.701 146.677C531.357 146.677 532.135 145.799 533.574 143.078H534.798V159.733H533.473C529.484 149.712 523.852 145.574 515.99 145.574C508.688 145.574 505.706 148.508 505.706 151.895C505.706 156.423 511.145 157.84 517.59 159.518C518.266 159.694 518.954 159.873 519.647 160.059C528.388 162.341 538.124 165.828 538.124 178.683C538.124 191.538 529.943 197.307 517.43 197.307C512.116 197.307 508.357 196.216 504.152 194.146C503.489 193.707 502.495 193.281 502.049 193.281C500.609 193.281 499.068 194.259 497.296 197.307H495.971V177.817L495.946 177.805Z" fill="#B4B4B4" fill-opacity="0.4"/>
</svg>
