<svg width="625" height="201" viewBox="0 0 625 201" fill="none" xmlns="http://www.w3.org/2000/svg">
<path d="M252.091 136.739H244.905V135H259V136.739H254.67L232.468 200H224.73L201.238 136.739H197V135H227.125V136.739H220.584L236.061 182.514L252.091 136.739Z" fill="#B4B4B4" fill-opacity="0.4"/>
<path d="M337.787 135V137.043H328.133V197.957H331.412C342.705 197.957 347.714 189.6 353.087 178.271H355L353.27 200H305V197.957H310.373V137.043H305V135H337.787Z" fill="#B4B4B4" fill-opacity="0.4"/>
<path d="M290.164 157.677V198.402H295V200H269.338V198.402H274.095V159.275H269V157.677H290.164ZM282.393 135C287.746 135 290.95 137.755 290.95 143.184C290.95 147.896 288.443 151.542 282.224 151.542C275.229 151.542 273.587 147.004 273.587 143.276C273.587 138.923 275.915 135.01 282.403 135.01L282.393 135Z" fill="#B4B4B4" fill-opacity="0.4"/>
<path d="M386.164 157.677V198.402H391V200H365.338V198.402H370.095V159.275H365V157.677H386.164ZM378.393 135C383.746 135 386.95 137.755 386.95 143.184C386.95 147.896 384.443 151.542 378.224 151.542C371.229 151.542 369.587 147.004 369.587 143.276C369.587 138.923 371.915 135.01 378.403 135.01L378.393 135Z" fill="#B4B4B4" fill-opacity="0.4"/>
<mask id="mask0_0_1" style="mask-type:alpha" maskUnits="userSpaceOnUse" x="0" y="0" width="185" height="200">
<path d="M95.1585 0.0351562C154.694 0.0351562 184.878 36.6443 184.878 99.601C184.878 162.558 155.802 199.999 91.8356 199.999C27.8692 199.999 0.455078 164.222 0.455078 103.206C0.455078 42.1912 33.4074 0.0351562 95.1585 0.0351562ZM127.834 91.0034C127.834 34.1482 126.173 5.85934 92.9432 5.85934C59.714 5.85934 57.2218 35.2576 57.2218 92.1128V112.081C57.2218 164.222 60.5447 194.175 92.9432 194.175C125.342 194.175 127.834 167.272 127.834 111.527V91.0034Z" fill="white"/>
</mask>
<g mask="url(#mask0_0_1)">
<rect x="-315.549" y="-108.754" width="922.112" height="518.041" fill="white"/>
</g>
<path fill-rule="evenodd" clip-rule="evenodd" d="M581.8 149.107H587.9V183.571C587.9 197.129 595.789 200.305 606.774 200.305C620.315 200.305 623.985 192.429 624.982 183.898L623.09 183.684C622.093 191.119 618.768 195.932 613.436 195.932C609.548 195.932 608.551 192.429 608.551 185.978V149.107H622.988V147.141H608.551V128L587.9 133.028V147.141H581.8V149.107ZM425.573 157.255V147.176H399V149.144H405.072V197.322H399V199.29H430.323V197.322H425.586V167.095C425.586 158.227 429.879 151.326 434.515 151.326C437.271 151.326 438.592 152.424 438.592 161.734V197.334H434.07V199.302H465.28V197.334H459.106V164.37C459.106 151.112 452.273 146.078 442.009 146.078C431.086 146.078 427.453 151.78 425.573 157.255ZM521.897 171.008C522.542 154.728 515.32 146.091 498.406 146.091V146.078C483.44 146.078 470.721 154.388 470.721 173.299C470.721 189.151 479.345 200.307 498.518 200.307C513.819 200.307 519.415 193.092 521.897 183.687L519.961 183.359C517.591 191.783 512.205 196.92 504.226 196.92C493.777 196.92 491.519 188.169 491.519 175.276V171.008H521.897ZM502.712 163.479V168.83H491.618V163.479C491.618 151.882 493.666 148.168 497.438 148.168C501.843 148.168 502.712 151.996 502.712 163.479ZM531.946 180.805H533.271C537.361 194.086 544.115 197.899 553.188 197.899C561.368 197.899 564.477 194.964 564.477 190.825C564.477 186.259 559.78 184.999 552.341 183.003L552.34 183.003C551.792 182.856 551.229 182.705 550.652 182.548C541.796 180.153 531.958 176.779 531.958 164.689C531.958 153.578 539.706 146.291 551.429 146.291C556.297 146.291 559.61 147.495 562.604 148.799C562.871 148.908 563.101 149.008 563.311 149.099L563.311 149.099C564.144 149.461 564.642 149.677 565.701 149.677C567.357 149.677 568.135 148.799 569.574 146.078H570.798V162.733H569.473C565.484 152.712 559.852 148.574 551.99 148.574C544.688 148.574 541.706 151.508 541.706 154.895C541.706 159.423 547.145 160.84 553.59 162.518C554.266 162.694 554.954 162.873 555.647 163.059C564.388 165.341 574.124 168.828 574.124 181.683C574.124 194.538 565.943 200.307 553.43 200.307C548.116 200.307 544.357 199.216 540.152 197.146C539.489 196.707 538.495 196.281 538.049 196.281C536.609 196.281 535.068 197.259 533.296 200.307H531.971V180.817L531.946 180.805Z" fill="#B4B4B4" fill-opacity="0.4"/>
</svg>
