<svg width="542" height="202" viewBox="0 0 542 202" fill="none" xmlns="http://www.w3.org/2000/svg">
<path d="M31.8378 133C51.8529 133 62 145.083 62 165.863C62 186.642 52.2252 199 30.7207 199C9.21622 199 0 187.191 0 167.053C0 146.914 11.0781 133 31.8378 133ZM42.8228 163.025C42.8228 144.259 42.2643 134.922 31.0931 134.922C19.9219 134.922 19.0841 144.626 19.0841 163.391V169.982C19.0841 187.191 20.2012 197.078 31.0931 197.078C41.985 197.078 42.8228 188.198 42.8228 169.799V163.025Z" fill="#B4B4B4" fill-opacity="0.4"/>
<path d="M119.091 134.766H111.905V133H126V134.766H121.67L99.4681 199H91.7296L68.2377 134.766H64V133H94.1248V134.766H87.584L103.061 181.245L119.091 134.766Z" fill="#B4B4B4" fill-opacity="0.4"/>
<path d="M249.443 134V136.043H239.596V196.957H242.94C254.459 196.957 259.568 188.6 265.049 177.271H267L265.235 199H216V196.957H221.481V136.043H216V134H249.443Z" fill="#B4B4B4" fill-opacity="0.4"/>
<path d="M301.164 158.677V199.402H306V201H280.338V199.402H285.095V160.275H280V158.677H301.164ZM293.393 136C298.746 136 301.95 138.755 301.95 144.184C301.95 148.896 299.443 152.542 293.224 152.542C286.229 152.542 284.587 148.004 284.587 144.276C284.587 139.923 286.915 136.01 293.403 136.01L293.393 136Z" fill="#B4B4B4" fill-opacity="0.4"/>
<mask id="mask0_0_1" style="mask-type:alpha" maskUnits="userSpaceOnUse" x="126" y="0" width="82" height="201">
<path d="M192.639 70.125V196.059H207.862V201H127.077V196.059H142.05V75.0661H126.012V70.125H192.639ZM168.174 0C185.027 0 195.113 8.52016 195.113 25.3071C195.113 39.8769 187.219 51.1526 167.642 51.1526C145.621 51.1526 140.452 37.1213 140.452 25.5922C140.452 12.1309 147.782 0.0316734 168.206 0.0316734L168.174 0Z" fill="white"/>
</mask>
<g mask="url(#mask0_0_1)">
<rect x="-491.492" y="-24.8672" width="1317.9" height="740.798" fill="white"/>
</g>
<path fill-rule="evenodd" clip-rule="evenodd" d="M498.8 150.107H504.9V184.571C504.9 198.129 512.789 201.305 523.774 201.305C537.315 201.305 540.985 193.429 541.982 184.898L540.09 184.684C539.093 192.119 535.768 196.932 530.436 196.932C526.548 196.932 525.551 193.429 525.551 186.978V150.107H539.988V148.141H525.551V129L504.9 134.028V148.141H498.8V150.107ZM342.573 158.255V148.176H316V150.144H322.072V198.322H316V200.29H347.323V198.322H342.586V168.095C342.586 159.227 346.879 152.326 351.515 152.326C354.271 152.326 355.592 153.424 355.592 162.734V198.334H351.07V200.302H382.28V198.334H376.106V165.37C376.106 152.112 369.273 147.078 359.009 147.078C348.086 147.078 344.453 152.78 342.573 158.255ZM438.897 172.008C439.542 155.728 432.32 147.091 415.406 147.091V147.078C400.44 147.078 387.721 155.388 387.721 174.299C387.721 190.151 396.345 201.307 415.518 201.307C430.819 201.307 436.415 194.092 438.897 184.687L436.961 184.359C434.591 192.783 429.205 197.92 421.226 197.92C410.777 197.92 408.519 189.169 408.519 176.276V172.008H438.897ZM419.712 164.479V169.83H408.618V164.479C408.618 152.882 410.666 149.168 414.438 149.168C418.843 149.168 419.712 152.996 419.712 164.479ZM448.946 181.805H450.271C454.361 195.086 461.115 198.899 470.188 198.899C478.368 198.899 481.477 195.964 481.477 191.825C481.477 187.259 476.78 185.999 469.341 184.003L469.34 184.003C468.792 183.856 468.229 183.705 467.652 183.548C458.796 181.153 448.958 177.779 448.958 165.689C448.958 154.578 456.706 147.291 468.429 147.291C473.297 147.291 476.61 148.495 479.604 149.799C479.871 149.908 480.101 150.008 480.311 150.099L480.311 150.099C481.144 150.461 481.642 150.677 482.701 150.677C484.357 150.677 485.135 149.799 486.574 147.078H487.798V163.733H486.473C482.484 153.712 476.852 149.574 468.99 149.574C461.688 149.574 458.706 152.508 458.706 155.895C458.706 160.423 464.145 161.84 470.59 163.518C471.266 163.694 471.954 163.873 472.647 164.059C481.388 166.341 491.124 169.828 491.124 182.683C491.124 195.538 482.943 201.307 470.43 201.307C465.116 201.307 461.357 200.216 457.152 198.146C456.489 197.707 455.495 197.281 455.049 197.281C453.609 197.281 452.068 198.259 450.296 201.307H448.971V181.817L448.946 181.805Z" fill="#B4B4B4" fill-opacity="0.4"/>
</svg>
