<svg width="602" height="197" viewBox="0 0 602 197" fill="none" xmlns="http://www.w3.org/2000/svg">
<path d="M31.8378 129C51.8529 129 62 141.083 62 161.863C62 182.642 52.2252 195 30.7207 195C9.21622 195 0 183.191 0 163.053C0 142.914 11.0781 129 31.8378 129ZM42.8228 159.025C42.8228 140.259 42.2643 130.922 31.0931 130.922C19.9219 130.922 19.0841 140.626 19.0841 159.391V165.982C19.0841 183.191 20.2012 193.078 31.0931 193.078C41.985 193.078 42.8228 184.198 42.8228 165.799V159.025Z" fill="#B4B4B4" fill-opacity="0.4"/>
<path d="M119.091 130.766H111.905V129H126V130.766H121.67L99.4681 195H91.7296L68.2377 130.766H64V129H94.1248V130.766H87.584L103.061 177.245L119.091 130.766Z" fill="#B4B4B4" fill-opacity="0.4"/>
<path d="M155.164 151.677V192.402H160V194H134.338V192.402H139.095V153.275H134V151.677H155.164ZM147.393 129C152.746 129 155.95 131.755 155.95 137.184C155.95 141.896 153.443 145.542 147.224 145.542C140.229 145.542 138.587 141.004 138.587 137.276C138.587 132.923 140.915 129.01 147.403 129.01L147.393 129Z" fill="#B4B4B4" fill-opacity="0.4"/>
<path d="M363.164 152.677V193.402H368V195H342.338V193.402H347.095V154.275H342V152.677H363.164ZM355.393 130C360.746 130 363.95 132.755 363.95 138.184C363.95 142.896 361.443 146.542 355.224 146.542C348.229 146.542 346.587 142.004 346.587 138.276C346.587 133.923 348.915 130.01 355.403 130.01L355.393 130Z" fill="#B4B4B4" fill-opacity="0.4"/>
<mask id="mask0_0_1" style="mask-type:alpha" maskUnits="userSpaceOnUse" x="175" y="0" width="152" height="195">
<path d="M274.387 0.144531V6.26629H245.181V188.806H255.1C289.266 188.806 304.421 163.762 320.677 129.815H326.463L321.228 194.928H175.195V188.806H191.452V6.26629H175.195V0.144531H274.387Z" fill="white"/>
</mask>
<g mask="url(#mask0_0_1)">
<rect x="-101.438" y="-244.371" width="1482.63" height="834.045" fill="white"/>
</g>
<path fill-rule="evenodd" clip-rule="evenodd" d="M558.8 145.107H564.9V179.571C564.9 193.129 572.789 196.305 583.774 196.305C597.315 196.305 600.985 188.429 601.982 179.898L600.09 179.684C599.093 187.119 595.768 191.932 590.436 191.932C586.548 191.932 585.551 188.429 585.551 181.978V145.107H599.988V143.141H585.551V124L564.9 129.028V143.141H558.8V145.107ZM402.573 153.255V143.176H376V145.144H382.072V193.322H376V195.29H407.323V193.322H402.586V163.095C402.586 154.227 406.879 147.326 411.515 147.326C414.271 147.326 415.592 148.424 415.592 157.734V193.334H411.07V195.302H442.28V193.334H436.106V160.37C436.106 147.112 429.273 142.078 419.009 142.078C408.086 142.078 404.453 147.78 402.573 153.255ZM498.897 167.008C499.542 150.728 492.32 142.091 475.406 142.091V142.078C460.44 142.078 447.721 150.388 447.721 169.299C447.721 185.151 456.345 196.307 475.518 196.307C490.819 196.307 496.415 189.092 498.897 179.687L496.961 179.359C494.591 187.783 489.205 192.92 481.226 192.92C470.777 192.92 468.519 184.169 468.519 171.276V167.008H498.897ZM479.712 159.479V164.83H468.618V159.479C468.618 147.882 470.666 144.168 474.438 144.168C478.843 144.168 479.712 147.996 479.712 159.479ZM508.946 176.805H510.271C514.361 190.086 521.115 193.899 530.188 193.899C538.368 193.899 541.477 190.964 541.477 186.825C541.477 182.259 536.78 180.999 529.341 179.003L529.34 179.003C528.792 178.856 528.229 178.705 527.652 178.548C518.796 176.153 508.958 172.779 508.958 160.689C508.958 149.578 516.706 142.291 528.429 142.291C533.297 142.291 536.61 143.495 539.604 144.799C539.871 144.908 540.101 145.008 540.311 145.099L540.311 145.099C541.144 145.461 541.642 145.677 542.701 145.677C544.357 145.677 545.135 144.799 546.574 142.078H547.798V158.733H546.473C542.484 148.712 536.852 144.574 528.99 144.574C521.688 144.574 518.706 147.508 518.706 150.895C518.706 155.423 524.145 156.84 530.59 158.518C531.266 158.694 531.954 158.873 532.647 159.059C541.388 161.341 551.124 164.828 551.124 177.683C551.124 190.538 542.943 196.307 530.43 196.307C525.116 196.307 521.357 195.216 517.152 193.146C516.489 192.707 515.495 192.281 515.049 192.281C513.609 192.281 512.068 193.259 510.296 196.307H508.971V176.817L508.946 176.805Z" fill="#B4B4B4" fill-opacity="0.4"/>
</svg>
