<svg width="199" height="64" viewBox="0 0 199 64" fill="none" xmlns="http://www.w3.org/2000/svg">
<path d="M16.7227 45.528C26.1787 45.528 31.4107 38.616 31.4107 28.536C31.4107 19.224 26.4187 11.688 16.7227 11.688C7.26669 11.688 1.98669 19.128 1.98669 28.776C1.98669 38.184 7.21869 45.528 16.7227 45.528ZM16.7227 40.2C11.2987 40.2 8.85069 35.544 8.85069 28.68C8.85069 21.864 11.2507 16.968 16.7227 16.968C22.2427 16.968 24.5467 22.008 24.5467 28.632C24.5467 35.352 22.0987 40.2 16.7227 40.2ZM39.2186 45H45.8906L54.2426 21.384H47.3306L42.5786 38.712H42.4826L37.7786 21.384H30.8666L39.2186 45ZM58.1339 17.256C60.1499 17.256 61.7339 15.72 61.7339 13.704C61.7339 11.736 60.1499 10.152 58.1339 10.152C56.1659 10.152 54.5819 11.736 54.5819 13.704C54.5819 15.72 56.1659 17.256 58.1339 17.256ZM54.9179 45H61.3979V21.192L54.9179 21.384V45ZM64.7054 45H71.1854V9.912L64.7054 10.104V45ZM77.7089 17.256C79.7249 17.256 81.3089 15.72 81.3089 13.704C81.3089 11.736 79.7249 10.152 77.7089 10.152C75.7409 10.152 74.1569 11.736 74.1569 13.704C74.1569 15.72 75.7409 17.256 77.7089 17.256ZM74.4929 45H80.9729V21.192L74.4929 21.384V45ZM94.9117 45H101.392V29.304C102.496 27.432 104.272 26.088 106.528 26.088C109.264 26.088 110.08 28.2 110.08 31.32V45H116.608V30.792C116.608 24.408 113.824 20.856 108.544 20.856C105.04 20.856 102.592 22.632 100.96 24.408H100.816L100.336 21.192L94.7677 21.384C94.8637 23.592 94.9117 25.944 94.9117 28.632V45ZM130.543 45.48C133.615 45.48 136.687 44.952 138.991 44.04L138.367 39.432C136.495 40.104 134.191 40.632 131.599 40.632C127.999 40.632 125.167 38.952 125.023 34.824H139.855C141.247 27.576 138.271 20.856 130.303 20.856C122.479 20.856 118.639 26.616 118.639 33.528C118.639 41.064 122.911 45.48 130.543 45.48ZM125.119 30.408C125.407 27.816 126.991 25.464 129.919 25.464C133.231 25.464 134.143 27.912 134.143 29.88C134.143 30.072 134.143 30.216 134.095 30.408H125.119ZM148.527 45.48C154.431 45.48 158.367 42.888 158.367 37.896C158.367 30.36 147.567 31.08 147.567 27.576C147.567 26.184 148.815 25.512 150.639 25.512C152.655 25.512 155.199 26.232 156.543 26.856L157.311 22.2C155.679 21.432 153.135 20.856 150.543 20.856C145.215 20.856 141.327 23.544 141.327 28.248C141.327 35.496 152.079 34.68 152.079 38.52C152.079 39.96 150.975 40.872 148.575 40.872C146.463 40.872 143.295 40.008 141.711 39.24L140.895 44.04C142.767 44.904 145.791 45.48 148.527 45.48ZM168.192 45.48C170.112 45.48 172.272 45.144 173.28 44.76L173.232 39.864C172.608 40.008 171.984 40.104 171.168 40.104C169.2 40.104 167.808 39.288 167.808 36.072V26.088H172.992L173.328 21.384H167.808V14.808L162.096 16.008L161.664 21.384L158.64 21.576L158.352 26.088H161.376V36.696C161.376 42.84 163.296 45.48 168.192 45.48Z" fill="white"/>
<path d="M180.57 2.39964C180.57 2.39964 180.573 2.43149 180.57 2.48642C180.574 2.54143 180.572 2.61952 180.576 2.71214C180.577 2.8973 180.596 3.14918 180.612 3.39523C180.648 3.89028 180.712 4.38561 180.712 4.38561C180.712 4.38561 180.729 4.21799 180.75 3.9694C180.763 3.84513 180.783 3.69778 180.8 3.54173C180.825 3.38575 180.847 3.22106 180.878 3.05357C180.938 2.72147 181.005 2.38945 181.072 2.14421C181.107 2.02015 181.13 1.91623 181.149 1.84409C181.168 1.77196 181.184 1.73161 181.184 1.73161C181.184 1.73161 181.309 1.66919 181.498 1.57848C181.592 1.53312 181.706 1.47927 181.826 1.42548C181.947 1.36881 182.076 1.3122 182.211 1.25567C182.347 1.19914 182.48 1.14549 182.606 1.09465C182.736 1.04675 182.853 0.998724 182.958 0.959255C183.063 0.919786 183.15 0.888806 183.211 0.866262C183.272 0.843718 183.306 0.83248 183.306 0.83248C183.58 0.676059 183.853 0.571703 184.086 0.490091C184.329 0.414369 184.535 0.367215 184.706 0.334177C185.055 0.279744 185.245 0.287397 185.245 0.287397C185.245 0.287397 185.214 0.405702 185.163 0.584565C185.136 0.671085 185.112 0.775001 185.09 0.890498C185.069 1.00312 185.044 1.12149 185.02 1.23986C184.987 1.48544 184.947 1.71938 184.94 1.90735C184.928 2.08949 184.916 2.21088 184.916 2.21088C184.916 2.21088 184.999 2.08729 185.131 1.90054C185.196 1.80861 185.281 1.7053 185.371 1.59336C185.461 1.48142 185.566 1.36673 185.666 1.2491C185.767 1.13147 185.884 1.0198 185.99 0.916697C186.098 0.810713 186.204 0.719183 186.293 0.633273C186.381 0.550239 186.465 0.487408 186.525 0.441711C186.585 0.396014 186.613 0.370255 186.613 0.370255C186.613 0.370255 186.658 0.364911 186.734 0.351202C186.774 0.342908 186.825 0.337625 186.885 0.329535C186.945 0.321444 187.012 0.313425 187.093 0.305537C187.399 0.265154 187.847 0.220369 188.402 0.193999C188.543 0.189598 188.686 0.182315 188.835 0.175105C188.989 0.173716 189.149 0.172396 189.309 0.171076C189.392 0.171888 189.469 0.169752 189.552 0.170565C189.635 0.171377 189.723 0.175141 189.811 0.178898C189.987 0.186413 190.159 0.188096 190.34 0.198556C191.069 0.234637 191.865 0.323452 192.661 0.449879C193.458 0.573429 194.271 0.757883 195.016 0.950352C195.203 1.00136 195.389 1.05237 195.57 1.10044C195.75 1.15138 195.928 1.2052 196.099 1.25895C196.439 1.35776 196.764 1.47089 197.058 1.56634C197.133 1.59312 197.204 1.61408 197.274 1.63791C197.344 1.66174 197.412 1.68843 197.482 1.71227C197.615 1.75986 197.741 1.80738 197.862 1.85196C197.983 1.89654 198.093 1.93524 198.195 1.97674C198.296 2.01824 198.387 2.05384 198.473 2.08651C198.808 2.21998 199 2.29709 199 2.29709C198.897 2.37128 198.782 2.4396 198.656 2.50489C198.59 2.53607 198.526 2.56436 198.46 2.59554C198.389 2.62377 198.325 2.65207 198.252 2.68318C198.11 2.73965 197.96 2.79603 197.814 2.84667C197.773 2.85785 197.738 2.87196 197.697 2.88313C197.661 2.89725 197.621 2.90842 197.583 2.92541C197.507 2.9507 197.429 2.97886 197.352 3.00415C196.729 3.20342 196.101 3.39687 195.57 3.59127C195.041 3.7828 194.612 3.98109 194.311 4.12279C194.164 4.19946 194.039 4.2503 193.964 4.29874C193.885 4.34136 193.837 4.36404 193.837 4.36404C193.837 4.36404 193.792 4.35781 193.718 4.35419C193.64 4.34475 193.537 4.34373 193.404 4.33375C193.336 4.33019 193.269 4.32664 193.195 4.32302C193.12 4.3194 193.045 4.31865 192.964 4.31496C192.882 4.31127 192.8 4.31046 192.717 4.30965C192.629 4.30589 192.55 4.3109 192.466 4.31296C192.381 4.31503 192.297 4.3171 192.213 4.31917C192.128 4.32123 192.049 4.32624 191.97 4.33125C191.891 4.33626 191.814 4.33839 191.742 4.34347C191.67 4.34854 191.603 4.35657 191.539 4.35884C191.416 4.36919 191.313 4.37976 191.239 4.38771C191.165 4.39567 191.127 4.40108 191.127 4.40108C191.127 4.40108 191.16 4.4043 191.219 4.41066C191.278 4.41702 191.368 4.42949 191.47 4.44495C191.573 4.46042 191.696 4.47609 191.824 4.4947C191.952 4.51332 192.091 4.53783 192.228 4.56522C192.298 4.57747 192.362 4.58678 192.43 4.60191C192.499 4.61416 192.567 4.62929 192.629 4.64148C192.754 4.66585 192.871 4.69303 192.977 4.71432C193.076 4.73554 193.161 4.75663 193.222 4.77169C193.283 4.78676 193.314 4.79285 193.314 4.79285C193.314 4.79285 193.283 4.81279 193.234 4.84993C193.18 4.88412 193.114 4.94132 193.036 5.00709C192.996 5.04141 192.951 5.07279 192.908 5.11287C192.865 5.15295 192.82 5.1959 192.77 5.23591C192.675 5.31888 192.583 5.42213 192.489 5.51667C192.441 5.56538 192.404 5.61998 192.356 5.66869C192.313 5.72034 192.274 5.76624 192.231 5.81789C192.195 5.86962 192.156 5.91552 192.124 5.96149C192.091 6.00746 192.06 6.05055 192.029 6.09364C191.976 6.17701 191.931 6.24599 191.896 6.29484C191.868 6.34663 191.852 6.3754 191.852 6.3754C191.852 6.3754 191.805 6.37206 191.724 6.36837C191.643 6.36469 191.522 6.3577 191.389 6.35929C191.251 6.35794 191.086 6.35631 190.912 6.3575C190.742 6.36451 190.552 6.36844 190.367 6.37819C190.187 6.39089 189.994 6.40056 189.826 6.41627C189.656 6.43485 189.49 6.44768 189.356 6.46373C189.08 6.49863 188.9 6.5229 188.9 6.5229C188.9 6.5229 189.05 6.51569 189.277 6.50634C189.333 6.50401 189.39 6.50167 189.459 6.50235C189.523 6.50008 189.592 6.50075 189.662 6.49855C189.802 6.49703 189.955 6.49565 190.107 6.49713C190.257 6.5015 190.408 6.50299 190.551 6.50728C190.689 6.50864 190.828 6.52157 190.936 6.52553C191.05 6.53244 191.144 6.53914 191.206 6.53974C191.271 6.54618 191.311 6.54947 191.311 6.54947C191.193 6.81157 191.054 7.07346 190.914 7.34981C190.877 7.41599 190.839 7.48504 190.801 7.5541C190.762 7.62315 190.724 7.6922 190.685 7.76126C190.607 7.90224 190.53 8.04035 190.452 8.18133C190.291 8.46906 190.133 8.75391 189.979 9.03012C189.901 9.17111 189.822 9.3121 189.747 9.44733C189.709 9.51638 189.67 9.58543 189.633 9.65161L189.606 9.70052L189.581 9.74655C189.565 9.77532 189.547 9.80697 189.531 9.83575C189.279 10.3135 189.079 10.76 188.938 11.0884C188.9 11.169 188.872 11.2439 188.844 11.3073C188.815 11.3707 188.796 11.4312 188.777 11.4773C188.739 11.5695 188.714 11.6156 188.714 11.6156C188.714 11.6156 188.679 11.6413 188.62 11.6841C188.56 11.7298 188.477 11.7926 188.371 11.8697C188.266 11.9468 188.157 12.044 188.025 12.144C187.898 12.2469 187.772 12.3614 187.639 12.4758C187.125 12.9394 186.656 13.47 186.656 13.47C186.656 13.47 186.757 13.4623 186.902 13.4522C187.053 13.4421 187.247 13.4295 187.448 13.417C187.649 13.4045 187.848 13.3949 187.996 13.3906C188.146 13.3834 188.246 13.3786 188.246 13.3786C188.246 13.3786 188.21 13.4043 188.152 13.4471C188.094 13.4899 188.005 13.5498 187.905 13.6298C187.703 13.7811 187.438 13.9955 187.182 14.2187C186.926 14.4418 186.674 14.6708 186.485 14.8483C186.302 15.0287 186.174 15.1461 186.174 15.1461C186.174 15.1461 186.287 15.1298 186.46 15.1055C186.633 15.0812 186.859 15.0487 187.085 15.0162C187.542 14.9541 188 14.9036 188 14.9036C187.984 15.3548 187.779 15.7983 187.486 16.2265C187.192 16.6546 186.806 17.0616 186.427 17.4195C186.047 17.7774 185.669 18.0833 185.385 18.2946C185.1 18.5087 184.912 18.6342 184.912 18.6342C184.912 18.6342 185.322 18.482 185.733 18.3298C186.147 18.1834 186.556 18.0341 186.556 18.0341C186.302 19.2004 185.502 19.9273 184.595 20.3495C183.693 20.7746 182.701 20.9008 182.094 20.9325C182.094 20.9325 182.129 19.9984 182.126 18.5837C182.129 17.1719 182.09 15.2738 182.182 13.4261C182.204 12.9634 182.238 12.5038 182.28 12.0558C182.326 11.6107 182.377 11.1715 182.442 10.7555C182.572 9.92363 182.755 9.17038 182.953 8.54165C183.15 7.91292 183.371 7.41749 183.539 7.07777C183.632 6.91089 183.688 6.77259 183.743 6.68634C183.792 6.59714 183.818 6.55111 183.818 6.55111C183.818 6.55111 183.791 6.60003 183.731 6.68333C183.676 6.76958 183.607 6.90488 183.508 7.07169C183.32 7.40833 183.079 7.90355 182.856 8.52912C182.627 9.15176 182.415 9.90762 182.253 10.745C182.087 11.5794 181.973 12.4954 181.893 13.4232C181.813 14.3511 181.768 15.2909 181.733 16.1758C181.705 17.0608 181.675 17.8878 181.649 18.5935C181.597 20.0076 181.526 20.9327 181.526 20.9327C181.526 20.9327 181.519 21.0454 181.501 21.2391C181.483 21.4327 181.462 21.7074 181.405 22.0221C181.348 22.3369 181.258 22.6976 181.118 23.0608C180.978 23.4239 180.783 23.7865 180.532 24.1138C180.406 24.2775 180.265 24.4323 180.11 24.5726C179.956 24.7128 179.789 24.8385 179.615 24.9525C179.44 25.0665 179.257 25.1601 179.076 25.248C178.985 25.2877 178.893 25.3273 178.798 25.361C178.709 25.3978 178.617 25.4258 178.525 25.4538C178.166 25.5631 177.836 25.6206 177.596 25.653C177.476 25.6692 177.382 25.6769 177.315 25.685C177.25 25.6901 177.214 25.6926 177.214 25.6926C177.214 25.6926 177.251 25.6872 177.315 25.6734C177.383 25.6625 177.482 25.6461 177.595 25.6183C177.832 25.5656 178.159 25.4763 178.5 25.3234C178.589 25.2896 178.671 25.2412 178.757 25.1986C178.839 25.1503 178.927 25.1048 179.013 25.0507C179.098 24.9966 179.178 24.9395 179.262 24.8767C179.34 24.8109 179.424 24.7481 179.496 24.6794C179.645 24.5362 179.787 24.3814 179.909 24.2119C180.031 24.0424 180.141 23.8583 180.232 23.6683C180.418 23.2853 180.538 22.8699 180.607 22.4598C180.676 22.0497 180.697 21.6506 180.692 21.2977C180.692 21.2109 180.69 21.127 180.688 21.0431C180.686 20.9591 180.683 20.8781 180.676 20.8028C180.67 20.6523 180.666 20.5221 180.658 20.4121C180.647 20.195 180.64 20.0705 180.64 20.0705C179.277 18.6222 178.307 17.1026 177.639 15.5367C176.972 13.9709 176.622 12.359 176.558 10.8048C176.558 10.8048 176.952 11.179 177.344 11.5473C177.539 11.7315 177.74 11.9186 177.887 12.0531C178.037 12.1935 178.134 12.2812 178.134 12.2812C178.134 12.2812 178.034 12.1125 177.882 11.8622C177.732 11.609 177.532 11.2714 177.34 10.9311C177.241 10.7594 177.143 10.5878 177.052 10.4278C176.962 10.2649 176.878 10.1165 176.806 9.98563C176.664 9.72966 176.569 9.55225 176.569 9.55225C176.641 8.45075 176.874 7.40867 177.233 6.48934C177.282 6.377 177.325 6.26172 177.372 6.15225C177.426 6.04284 177.473 5.93337 177.526 5.82685C177.555 5.77506 177.578 5.72033 177.6 5.66847C177.629 5.61668 177.658 5.56488 177.685 5.51596C177.741 5.41526 177.797 5.31456 177.851 5.21674C178.088 4.82851 178.328 4.47214 178.589 4.16515C178.653 4.08767 178.715 4.01307 178.778 3.93846C178.845 3.8668 178.911 3.79801 178.97 3.72916C179.035 3.66326 179.094 3.59441 179.155 3.53425C179.215 3.47698 179.273 3.42259 179.331 3.36819C179.445 3.26228 179.555 3.16498 179.659 3.07633C179.764 2.98768 179.863 2.91053 179.952 2.8362C180.129 2.69329 180.285 2.58778 180.387 2.51646C180.489 2.44513 180.544 2.40807 180.544 2.40807L180.57 2.39964Z" fill="white"/>
</svg>
